<svg version="1.1" id="Layer_1" xmlns="http://www.w3.org/2000/svg" x="0" y="0" width="828" height="36" xml:space="preserve"><style>.st0{fill:#c2fffa;fill-opacity:0}.st1{fill:#ee3633}.st2{opacity:1.000000e-02;fill:#c2fffa;enable-background:new}.st4{fill:#ed7d4a}.st6{fill:#12b5af}.st7{fill:#5320c4}.st8{fill:#6322bf}.st9{fill:#8f24bc}.st11{fill:#e643f7}.st13{fill:#f743f3}.st16{fill:#f743b2}.st19{fill:#f445df}.st22{fill:#f74384}.st25{fill:#f24646}.st27{fill:#ef5848}.st29{fill:#ed804a}.st31{fill:#edb24a}.st33{fill:#edab4a}.st34{fill:#1e52c6}</style><path class="st0" d="M576 0h36v36h-36z"/><path class="st1" d="M597.5 11c-1.3 0-2.3.4-3.2 1.3l-.3.3-.3-.3c-.9-.9-1.9-1.3-3.2-1.3s-2.3.4-3.2 1.3-1.3 1.9-1.3 3.2c0 1.3.4 2.3 1.3 3.2l6 6.1c.2.2.4.3.7.3s.6-.1.7-.3l6-6.1c.9-.9 1.3-1.9 1.3-3.2 0-1.3-.4-2.3-1.3-3.2-.7-.8-1.9-1.3-3.2-1.3z"/><path class="st0" d="M612 0h36v36h-36z"/><path class="st1" d="M633.3 11.4c-1.2 0-2.2.4-3 1.2l-.3.3-.3-.3c-.8-.8-1.8-1.2-3-1.2s-2.2.4-3 1.2c-.8.8-1.2 1.8-1.2 3s.4 2.2 1.2 3l5.6 5.7c.1.1.4.3.7.3s.5-.1.7-.3l5.6-5.7c.8-.8 1.2-1.8 1.2-3s-.4-2.2-1.2-3c-.7-.8-1.8-1.2-3-1.2z"/><path class="st0" d="M648 0h36v36h-36z"/><path class="st1" d="M669.1 11.9c-1.1 0-2 .4-2.8 1.2l-.2.3-.3-.3c-.8-.8-1.7-1.2-2.8-1.2s-2 .4-2.8 1.2c-.8.8-1.2 1.7-1.2 2.8 0 1.1.4 2 1.2 2.8l5.2 5.3c.1.1.4.2.6.2s.5-.1.6-.2l5.2-5.3c.8-.8 1.2-1.7 1.2-2.8s-.4-2-1.2-2.8c-.6-.9-1.6-1.2-2.7-1.2z"/><path class="st0" d="M684 0h36v36h-36z"/><path class="st1" d="M705.3 11.4c-1.2 0-2.2.4-3 1.2l-.3.3-.3-.3c-.8-.8-1.8-1.2-3-1.2s-2.2.4-3 1.2c-.8.8-1.2 1.8-1.2 3s.4 2.2 1.2 3l5.6 5.7c.1.1.4.3.7.3s.5-.1.7-.3l5.6-5.7c.8-.8 1.2-1.8 1.2-3s-.4-2.2-1.2-3c-.7-.8-1.8-1.2-3-1.2z"/><path class="st0" d="M720 0h36v36h-36z"/><path class="st1" d="M741.3 11.4c-1.2 0-2.2.4-3 1.2l-.3.3-.3-.3c-.8-.8-1.8-1.2-3-1.2s-2.2.4-3 1.2c-.8.8-1.2 1.8-1.2 3s.4 2.2 1.2 3l5.6 5.7c.2.2.4.3.7.3s.5-.1.7-.3l5.6-5.7c.8-.8 1.2-1.8 1.2-3s-.4-2.2-1.2-3c-.7-.7-1.8-1.2-3-1.2z"/><path class="st0" d="M756 0h36v36h-36z"/><path class="st1" d="M777.2 11.9c-1.1 0-2 .4-2.8 1.1l-.3.3-.3-.3c-.8-.8-1.7-1.1-2.8-1.1s-2 .4-2.8 1.1c-.8.8-1.1 1.7-1.1 2.8s.4 2 1.1 2.8l5.2 5.3c.1.1.4.3.6.3s.4-.1.6-.3l5.2-5.3c.8-.8 1.1-1.7 1.1-2.8s-.4-2-1.1-2.8c-.5-.6-1.5-1.1-2.6-1.1z"/><path class="st2" d="M792 0h36v36h-36z"/><path class="st1" d="M813.3 11.4c-1.2 0-2.2.4-3 1.2l-.3.3-.3-.3c-.8-.8-1.8-1.2-3-1.2s-2.2.4-3 1.2c-.8.8-1.2 1.8-1.2 3s.4 2.2 1.2 3l5.6 5.7c.2.2.4.3.7.3s.5-.1.7-.3l5.6-5.7c.8-.8 1.2-1.8 1.2-3s-.4-2.2-1.2-3c-.7-.7-1.8-1.2-3-1.2z"/><path class="st0" d="M432 0h36v36h-36z"/><g opacity=".4"><path class="st4" d="M464.1 20.4c-.3-.5-.8-.8-1.3-.9-1.1-.2-2.1.4-2.3 1.5-.2 1 .3 2 1.3 2.4.1 0 .2 0 .3.1.4.1.9 0 1.3-.2.5-.3.9-.7 1-1.3.1-.6 0-1.2-.3-1.6zM458 28.2c-.6-.9-1.8-1.2-2.7-.6-.9.5-1.2 1.7-.8 2.6.2.4.7.8 1.2 1.1h.2c.5.1 1 0 1.5-.2.5-.3.9-.7 1-1.3 0-.7-.1-1.2-.4-1.6zM446.9 28.6c-1-.2-2 .3-2.4 1.3-.2.5-.1 1.1.1 1.5.3.5.7.9 1.3 1h.1c.5.1 1.1 0 1.5-.3.5-.3.8-.8.9-1.3.2-.9-.4-2-1.5-2.2zM440.3 23.4c-.5-.9-1.7-1.2-2.6-.8-.4.2-.8.7-1.1 1.2-.2.6-.1 1.1.2 1.7.3.5.7.9 1.3 1 .5.1 1 0 1.5-.3 1-.7 1.2-1.9.7-2.8zM438 12.6c-.5-.2-1.1-.1-1.5.1-.5.3-.9.7-1 1.3s0 1.2.3 1.7.7.7 1.3.9c1.1.2 2.1-.4 2.3-1.5.2-1.1-.4-2.1-1.4-2.5zM445.3 5.8c-.2-.4-.7-.8-1.2-1.1-.6-.2-1.1-.1-1.7.2-.5.3-.9.7-1 1.3-.1.5 0 1 .3 1.5s.8.8 1.4.9c.5.1.9 0 1.4-.2 1-.5 1.3-1.6.8-2.6zM455.2 4.6c-.3-.5-.7-.9-1.3-1-.6-.1-1.2 0-1.7.3-.4.2-.6.7-.7 1.2-.2 1.1.4 2.1 1.5 2.3h.1c1 .2 2-.3 2.3-1.3.1-.5.1-1.1-.2-1.5zM463 10.6c-.3-.5-.7-.9-1.3-1-.5-.1-1 0-1.5.3-.9.6-1.2 1.8-.6 2.7.3.6.8.9 1.3 1 .4.1.8.1 1.3-.2.4-.2.8-.7 1.1-1.2 0-.5 0-1.1-.3-1.6z"/></g><path class="st1" d="M452 14.1c-.7 0-1.3.2-1.8.8l-.2.2-.2-.2c-.5-.5-1.1-.8-1.8-.8s-1.3.2-1.8.8-.8 1.1-.8 1.8.2 1.3.8 1.8l3.4 3.4c.1.1.2.1.4.1s.3 0 .4-.1l3.4-3.4c.5-.5.8-1.1.8-1.8s-.2-1.3-.8-1.8c-.4-.5-1.1-.8-1.8-.8z"/><path class="st2" d="M0 0h36v36H0z"/><path d="M21.3 11.4c-1.2 0-2.2.4-3 1.2l-.3.3-.3-.2c-.8-.8-1.8-1.2-3-1.2s-2.2.4-3 1.2c-.8.8-1.2 1.8-1.2 3s.4 2.2 1.2 3l5.6 5.7c.2.2.4.3.7.3s.5-.1.7-.3l5.6-5.7c.8-.8 1.2-1.8 1.2-3s-.4-2.2-1.2-3c-.7-.8-1.8-1.3-3-1.3z" fill="#e9ebed"/><path class="st0" d="M72 0h36v36H72z"/><path class="st6" d="M90 19.5c-.8 0-1.5-.7-1.5-1.5s.7-1.5 1.5-1.5 1.5.7 1.5 1.5-.7 1.5-1.5 1.5zm0-2c-.3 0-.5.2-.5.5s.2.5.5.5.5-.2.5-.5-.2-.5-.5-.5z"/><path class="st7" d="M94.3 17.9c-.1-.1-.3-.2-.4-.2-.3 0-.6.2-.6.6 0 .3.2.6.5.6h.1c.1 0 .3-.1.4-.1.1-.1.2-.3.2-.4s-.1-.3-.2-.5zM92.9 20.6c-.2-.2-.6-.3-.8 0-.2.2-.3.6-.1.8.1.1.2.2.4.2h.1c.2 0 .3-.1.4-.1.1-.1.2-.3.2-.4 0-.2-.1-.4-.2-.5zM89.6 21.3c-.3 0-.6.2-.6.5 0 .2 0 .3.1.5.1.1.3.2.4.2.2 0 .3-.1.4-.2.1-.1.2-.3.2-.4.1-.3-.1-.6-.5-.6zM87.4 20.1c-.2-.2-.6-.3-.8-.1-.1.1-.2.2-.2.4s0 .3.1.5c.1.1.3.2.4.2.2 0 .3-.1.4-.2.3-.2.3-.6.1-.8zM86.2 17c-.2 0-.3 0-.5.1-.1.1-.2.3-.2.4 0 .2.1.4.2.5.1.1.2.2.4.2.3 0 .6-.2.6-.6 0-.3-.2-.5-.5-.6zM88 14.6c-.1-.1-.2-.2-.4-.2s-.3 0-.5.1c-.1.1-.2.3-.2.4 0 .2.1.3.2.4.1.1.3.2.4.2.2 0 .3-.1.4-.1.2-.2.3-.5.1-.8zM90.8 13.7c-.1-.1-.3-.2-.4-.2-.2 0-.4.1-.5.2-.1.1-.2.2-.2.4 0 .3.2.6.6.6.3 0 .6-.2.6-.5.1-.2.1-.4-.1-.5zM93.5 15.1c-.1-.1-.3-.2-.4-.2-.2 0-.3.1-.4.2-.2.2-.3.6 0 .8.1.2.3.2.4.2.1 0 .2 0 .4-.1.1-.1.2-.2.2-.4-.1-.2-.1-.3-.2-.5z"/><g><path class="st0" d="M108 0h36v36h-36z"/><path class="st6" d="M126 21.5c-1.9 0-3.5-1.6-3.5-3.5s1.6-3.5 3.5-3.5 3.5 1.6 3.5 3.5-1.6 3.5-3.5 3.5zm0-6c-1.4 0-2.5 1.1-2.5 2.5s1.1 2.5 2.5 2.5 2.5-1.1 2.5-2.5-1.1-2.5-2.5-2.5z"/><path class="st8" d="M131.4 18c-.1-.2-.3-.2-.5-.2-.4 0-.7.3-.8.7 0 .4.2.7.6.8h.1c.1 0 .3-.1.4-.1.2-.1.3-.3.3-.5.1-.3 0-.5-.1-.7zM129.6 21.3c-.3-.3-.7-.3-1-.1-.3.2-.4.7-.1 1 .1.2.3.3.5.3h.1c.2 0 .4-.1.5-.2.2-.1.3-.3.3-.5-.1-.2-.1-.4-.3-.5zM125.6 22c-.4 0-.7.2-.8.6 0 .2 0 .4.1.6s.3.3.5.3.4-.1.5-.2c.2-.1.2-.3.2-.5.2-.4-.1-.7-.5-.8zM122.9 20.5c-.2-.3-.7-.4-1-.1-.2.1-.3.3-.3.5s0 .4.2.6c.1.2.3.3.5.3s.4-.1.5-.2c.3-.4.3-.8.1-1.1zM121.4 16.7c-.2 0-.4 0-.6.1s-.3.3-.3.5.1.4.2.6.3.2.5.2c.4 0 .7-.3.8-.7.1-.3-.2-.6-.6-.7zM123.7 13.8c-.1-.2-.3-.3-.5-.3s-.4 0-.6.2c-.2.1-.3.3-.3.5s.1.4.2.5c.1.2.3.2.5.2s.3-.1.5-.2c.4-.1.4-.5.2-.9zM127.2 12.8c-.1-.2-.3-.3-.5-.3s-.4.1-.6.2c-.1.1-.2.3-.2.5 0 .4.3.7.7.8.4 0 .7-.2.8-.6 0-.2 0-.5-.2-.6zM130.4 14.5c-.1-.2-.3-.3-.5-.3s-.4.1-.5.2c-.3.3-.3.7-.1 1 .1.2.4.3.5.3s.3 0 .4-.1c.2-.1.3-.3.3-.5.1-.2 0-.4-.1-.6z"/></g><g><path class="st0" d="M144 0h36v36h-36z"/><path class="st6" d="M162 23.5c-3 0-5.5-2.5-5.5-5.5s2.5-5.5 5.5-5.5 5.5 2.5 5.5 5.5-2.5 5.5-5.5 5.5zm0-10c-2.5 0-4.5 2-4.5 4.5s2 4.5 4.5 4.5 4.5-2 4.5-4.5c0-2.4-2-4.5-4.5-4.5z"/><path class="st9" d="M168.3 18.2c-.2-.2-.4-.3-.6-.3-.5 0-.9.3-.9.8 0 .4.3.8.7 1h.1c.2 0 .4-.1.5-.1.2-.2.3-.4.3-.6.1-.4 0-.8-.1-.8zM166.1 21.9c-.3-.4-.9-.4-1.2-.1-.4.3-.4.8-.2 1.2.1.2.3.3.6.4h.1c.2 0 .4-.1.6-.2.2-.2.3-.4.3-.6.1-.4 0-.5-.2-.7zM161.4 22.8c-.4 0-.8.3-1 .7-.1.2 0 .5.1.7.2.2.4.3.6.3.2 0 .5-.1.6-.2.2-.2.3-.4.3-.6.2-.5-.2-.9-.6-.9zM158.2 20.9c-.3-.4-.8-.4-1.2-.2-.2.1-.3.3-.4.6-.1.3 0 .5.2.7s.4.3.6.3c.2 0 .4-.1.6-.2.4-.3.5-.9.2-1.2zM156.5 16.4c-.2-.1-.5 0-.7.1-.2.2-.3.4-.3.6 0 .3.1.5.2.7.2.2.3.3.6.3.5 0 .9-.3.9-.8.1-.4-.2-.8-.7-.9zM159.3 13c-.1-.2-.3-.3-.6-.4-.3-.1-.5 0-.7.2-.2.2-.3.4-.3.6s.1.4.2.6c.2.2.4.3.6.3.2 0 .4-.1.6-.2.4-.2.4-.7.2-1.1zM163.5 11.9c-.2-.2-.4-.3-.6-.3-.3 0-.5.1-.7.2-.1.1-.2.3-.2.6 0 .5.3.9.8.9.4 0 .8-.3.9-.7-.1-.4-.1-.5-.2-.7zM167.2 14c-.2-.2-.4-.3-.6-.3-.2 0-.4.1-.6.2-.4.3-.4.9-.1 1.2.2.2.4.3.6.3.2 0 .4 0 .5-.1.2-.1.3-.3.4-.6 0-.2-.1-.6-.2-.7z"/></g><g><path class="st0" d="M180 0h36v36h-36z"/><path d="M198 25.5c-4.1 0-7.5-3.4-7.5-7.5s3.4-7.5 7.5-7.5 7.5 3.4 7.5 7.5-3.4 7.5-7.5 7.5zm0-14c-3.6 0-6.5 2.9-6.5 6.5s2.9 6.5 6.5 6.5 6.5-2.9 6.5-6.5-2.9-6.5-6.5-6.5z" opacity=".95" fill="#12b5af"/><path class="st11" d="M205.2 18.2c-.2-.2-.4-.3-.7-.4-.6 0-1 .3-1.1.9 0 .5.3 1 .8 1.1h.2c.2 0 .5-.1.6-.2.2-.2.4-.4.4-.7.1-.1 0-.4-.2-.7zM202.7 22.6c-.4-.4-1-.5-1.4-.1-.4.3-.5.9-.2 1.3.1.2.4.4.7.5h.1c.3 0 .5-.1.7-.2.2-.2.4-.4.4-.7-.1-.4-.1-.6-.3-.8zM197.2 23.5c-.5 0-1 .3-1.1.8-.1.2 0 .6.1.8.2.2.4.4.7.4h.1c.3 0 .6-.1.7-.3.2-.2.3-.4.4-.7 0-.5-.4-1-.9-1zM193.5 21.2c-.3-.4-.9-.5-1.3-.2-.2.1-.4.4-.5.7-.1.3 0 .6.2.8.2.2.4.4.7.4.3 0 .5-.1.7-.3.5-.4.6-.9.2-1.4zM191.7 16c-.2-.1-.6 0-.8.1-.2.2-.4.4-.4.7 0 .3.1.6.2.8.2.2.4.3.7.4.6 0 1-.3 1.1-.9.1-.5-.2-.9-.8-1.1zM195 12.2c-.1-.2-.4-.4-.7-.5s-.6 0-.8.2-.4.4-.4.7.1.5.3.7.4.3.7.4c.3 0 .5-.1.7-.2.4-.3.4-.8.2-1.3zM199.8 11c-.2-.2-.4-.4-.7-.4s-.6.1-.8.2c-.2.1-.3.4-.3.6 0 .6.3 1 .9 1.1h.1c.5 0 1-.3 1.1-.8-.1-.2-.1-.5-.3-.7zM204.1 13.5c-.2-.2-.4-.4-.7-.4s-.5.1-.7.3c-.4.4-.5 1-.1 1.4.2.3.5.4.7.4s.4 0 .6-.2c.2-.1.4-.4.5-.7-.1-.2-.2-.6-.3-.8z"/></g><g><path class="st0" d="M216 0h36v36h-36z"/><path d="M234 27.5c-5.2 0-9.5-4.3-9.5-9.5s4.3-9.5 9.5-9.5 9.5 4.3 9.5 9.5-4.3 9.5-9.5 9.5zm0-18c-4.7 0-8.5 3.8-8.5 8.5s3.8 8.5 8.5 8.5 8.5-3.8 8.5-8.5-3.8-8.5-8.5-8.5z" opacity=".9" fill="#12b5af"/><path class="st13" d="M242.2 18.5c-.2-.2-.5-.4-.8-.4-.6-.1-1.2.4-1.2 1s.3 1.1.9 1.3h.2c.2 0 .5-.1.7-.2.2-.2.4-.5.5-.8 0-.4-.1-.7-.3-.9zM239.2 23.2c-.4-.5-1.1-.6-1.6-.2-.5.4-.6 1-.3 1.5.2.2.4.4.8.5h.1c.3 0 .6-.1.8-.2.2-.2.4-.5.5-.8 0-.2-.1-.5-.3-.8zM232.9 24.2c-.6 0-1.1.3-1.3.9-.1.3 0 .6.2.9.2.2.5.4.8.5h.1c.3 0 .6-.1.8-.3.2-.2.4-.5.4-.8.1-.6-.3-1.2-1-1.2zM228.9 21.5c-.4-.5-1-.6-1.5-.3-.2.2-.4.4-.5.8-.1.3 0 .6.2.9.2.2.5.4.8.5.3 0 .6-.1.8-.3.5-.3.5-1.1.2-1.6zM226.9 15.6c-.3-.1-.6 0-.9.2-.2.2-.4.5-.5.8 0 .3.1.7.3.9s.4.4.8.4c.6.1 1.2-.4 1.2-1 .1-.7-.3-1.1-.9-1.3zM230.7 11.3c-.2-.2-.4-.4-.8-.5s-.6 0-.9.2c-.2.2-.4.5-.5.8 0 .3.1.6.3.8s.5.4.8.4.5-.1.8-.2c.5-.4.6-1 .3-1.5zM236.2 10.1c-.2-.2-.5-.4-.8-.5-.3 0-.7.1-.9.3s-.3.4-.3.7c-.1.6.4 1.2 1 1.2h.1c.6 0 1.1-.3 1.2-.9-.1-.3-.1-.7-.3-.8zM241 12.9c-.2-.2-.5-.4-.8-.5-.3 0-.6.1-.8.3-.5.4-.6 1.1-.2 1.6.2.3.5.4.8.5.2 0 .5 0 .7-.2s.4-.4.5-.8c0-.2 0-.6-.2-.9z"/></g><g><path class="st0" d="M252 0h36v36h-36z"/><path d="M270 29.5c-6.3 0-11.5-5.2-11.5-11.5S263.7 6.5 270 6.5s11.5 5.2 11.5 11.5-5.2 11.5-11.5 11.5zm0-22c-5.8 0-10.5 4.7-10.5 10.5s4.7 10.5 10.5 10.5 10.5-4.7 10.5-10.5S275.8 7.5 270 7.5z" opacity=".8" fill="#12b5af"/><g opacity=".9"><path class="st16" d="M278.2 18.6c-.2-.3-.5-.4-.8-.4-.6-.1-1.2.3-1.2 1-.1.6.3 1.1.8 1.3h.2c.2 0 .5-.1.7-.2.3-.2.5-.5.5-.8.1-.3 0-.6-.2-.9zM275.1 23.4c-.4-.5-1.1-.6-1.6-.2-.5.3-.6 1-.3 1.5.1.2.4.4.7.5h.1c.3 0 .6-.1.8-.2.3-.2.5-.5.5-.8.1-.3 0-.6-.2-.8zM268.8 24.2c-.6-.1-1.1.3-1.3.8-.1.3 0 .6.1.9.2.3.5.5.8.5h.1c.3 0 .6 0 .8-.3.3-.2.4-.5.4-.8.2-.5-.2-1.1-.9-1.1zM264.8 21.5c-.3-.5-1-.6-1.5-.3-.2.1-.4.4-.5.7-.1.3 0 .6.2.9s.5.5.8.5c.3 0 .6-.1.8-.3.5-.3.6-1 .2-1.5zM263 15.5c-.3-.1-.6 0-.9.1-.3.2-.5.5-.5.8s0 .7.2.9.4.4.8.4c.6.1 1.2-.3 1.2-1 .1-.5-.2-1-.8-1.2zM266.8 11.3c-.1-.2-.4-.4-.7-.5-.3-.1-.6 0-.9.2s-.5.5-.5.8.1.6.3.8.5.4.8.4.5-.1.8-.2c.4-.3.5-1 .2-1.5zM272.3 10.1c-.2-.3-.5-.5-.8-.5s-.7 0-.9.2c-.2.2-.3.4-.4.7-.1.6.3 1.2 1 1.2h.1c.6.1 1.1-.3 1.2-.8 0-.2 0-.5-.2-.8zM277 13.1c-.2-.3-.5-.5-.8-.5s-.6.1-.8.3c-.5.4-.6 1.1-.2 1.6.2.3.5.5.8.5.2 0 .5 0 .7-.2.2-.1.4-.4.5-.7.1-.3 0-.7-.2-1z"/></g></g><g><path class="st0" d="M288 0h36v36h-36z"/><path d="M306 31.5c-7.4 0-13.5-6.1-13.5-13.5S298.6 4.5 306 4.5s13.5 6.1 13.5 13.5-6.1 13.5-13.5 13.5zm0-26c-6.9 0-12.5 5.6-12.5 12.5s5.6 12.5 12.5 12.5 12.5-5.6 12.5-12.5S312.9 5.5 306 5.5z" opacity=".6" fill="#12b5af"/><g opacity=".8"><path class="st19" d="M315.1 18.9c-.2-.3-.5-.4-.8-.5-.7-.1-1.3.4-1.4 1s.3 1.3.9 1.5h.2c.3 0 .6-.1.8-.2.3-.2.5-.5.6-.9 0-.3-.1-.7-.3-.9zM311.6 24.1c-.4-.6-1.2-.7-1.8-.3s-.7 1.1-.4 1.7c.2.3.5.5.8.6h.1c.3 0 .6 0 .9-.2s.5-.5.6-.9c.1-.4 0-.6-.2-.9zM304.6 24.9c-.6-.1-1.3.3-1.5.9-.1.3 0 .7.1 1 .2.3.5.5.9.6h.1c.3 0 .7 0 .9-.3.3-.2.4-.5.5-.8.1-.8-.3-1.3-1-1.4zM300.1 21.9c-.4-.6-1.1-.7-1.7-.4-.3.2-.5.5-.6.8-.1.4 0 .7.2 1.1.2.3.5.5.9.6.3 0 .6 0 .9-.3.6-.6.7-1.3.3-1.8zM298.2 15.1c-.3-.1-.7 0-1 .1-.3.2-.5.5-.6.9 0 .4 0 .8.3 1.1.2.3.5.4.8.5.7.1 1.3-.4 1.4-1 .2-.8-.2-1.3-.9-1.6zM302.6 10.4c-.2-.3-.5-.5-.8-.6s-.7 0-1.1.2c-.3.2-.5.5-.6.9 0 .3 0 .6.3.9.2.3.5.4.9.5.3 0 .6-.1.9-.2.5-.3.7-1 .4-1.7zM308.7 9.2c-.2-.3-.5-.5-.9-.6-.4 0-.8 0-1.1.3-.2.2-.4.5-.4.8-.1.7.4 1.3 1 1.4h.1c.6.1 1.3-.3 1.4-.9.2-.3.2-.6-.1-1zM314 12.6c-.2-.3-.5-.5-.9-.6-.3 0-.6 0-.9.3-.6.4-.7 1.2-.3 1.8.2.3.6.5.9.6.3 0 .5 0 .8-.2s.5-.5.6-.8c.1-.3 0-.6-.2-1.1z"/></g></g><g><path class="st0" d="M324 0h36v36h-36z"/><path d="M342 33.5c-8.5 0-15.5-7-15.5-15.5s7-15.5 15.5-15.5 15.5 7 15.5 15.5-7 15.5-15.5 15.5zm0-30c-8 0-14.5 6.5-14.5 14.5S334 32.5 342 32.5 356.5 26 356.5 18 350 3.5 342 3.5z" opacity=".4" fill="#12b5af"/><path class="st1" d="M342.7 16.8c-.2 0-.4.1-.6.2h-.1c-.2-.2-.4-.2-.6-.2s-.4.1-.6.2c-.2.1-.2.4-.2.6s.1.4.2.6l1.1 1.1h.2l1.1-1.1c.2-.2.2-.4.2-.6s-.1-.4-.2-.6c-.1-.2-.3-.2-.5-.2z"/><g opacity=".7"><path class="st22" d="M352.1 19.2c-.2-.3-.6-.5-.9-.6-.8-.1-1.5.4-1.6 1.1s.3 1.4 1 1.6h.2c.3 0 .6-.1.9-.2.3-.2.6-.6.6-1 .1-.2 0-.6-.2-.9zM348.1 24.9c-.5-.6-1.3-.8-1.9-.3-.6.4-.8 1.2-.5 1.9.2.3.5.6.9.7h.1c.3 0 .7 0 1-.2s.6-.6.6-1c.1-.4 0-.8-.2-1.1zM340.3 25.6c-.7-.1-1.4.3-1.6 1-.1.3 0 .8.1 1.1.2.3.6.6 1 .6h.1c.3 0 .8 0 1-.3.3-.2.5-.6.6-.9 0-.7-.4-1.4-1.2-1.5zM335.4 22.2c-.4-.6-1.2-.8-1.9-.5-.3.2-.6.5-.7.9s0 .8.2 1.2c.2.3.6.6 1 .6.3 0 .7 0 1-.3.7-.5.8-1.3.4-1.9zM333.4 14.7c-.3-.1-.8 0-1.1.1-.3.2-.6.6-.6 1-.1.4 0 .9.3 1.2.2.3.5.5.9.6.8.1 1.5-.4 1.6-1.1.1-.9-.3-1.5-1.1-1.8zM338.3 9.6c-.2-.3-.5-.6-.9-.7-.4-.1-.8 0-1.2.2-.3.2-.6.6-.6 1 0 .3 0 .7.3 1 .2.3.6.5 1 .6.3 0 .6-.1 1-.2.6-.4.8-1.2.4-1.9zM345.2 8.4c-.2-.3-.6-.6-1-.6-.4-.1-.9 0-1.2.3-.2.2-.4.5-.5.9-.1.8.4 1.5 1.1 1.6h.1c.7.1 1.4-.3 1.6-1 .1-.5.1-.9-.1-1.2zM350.9 12.3c-.2-.3-.6-.6-1-.6-.3 0-.7 0-1 .3-.6.5-.8 1.3-.3 1.9.2.4.6.6 1 .6.3 0 .6 0 .9-.2s.6-.5.7-.9c0-.2-.1-.7-.3-1.1z"/></g></g><g><path class="st0" d="M360 0h36v36h-36z"/><path d="M378 35.5c-9.6 0-17.5-7.9-17.5-17.5S368.4.5 378 .5s17.5 7.9 17.5 17.5-7.9 17.5-17.5 17.5zm0-34c-9.1 0-16.5 7.4-16.5 16.5s7.4 16.5 16.5 16.5 16.5-7.4 16.5-16.5S387.1 1.5 378 1.5z" opacity=".2" fill="#12b5af"/><path class="st1" d="M379.1 15.8c-.4 0-.7.1-1 .4l-.1.1-.1-.1c-.3-.3-.6-.4-1-.4s-.7.1-1 .4c-.3.3-.4.6-.4 1s.1.7.4 1l1.9 1.9c.1.1.1.1.2.1s.2 0 .2-.1l1.9-1.9c.3-.3.4-.6.4-1s-.1-.7-.4-1c-.2-.2-.6-.4-1-.4z"/><g opacity=".6"><path class="st25" d="M389 19.5c-.3-.4-.6-.6-1-.6-.8-.1-1.6.4-1.8 1.2-.1.8.3 1.5 1 1.8h.2c.3 0 .7 0 1-.2.4-.3.6-.6.7-1.1.2-.3.2-.8-.1-1.1zM384.5 25.7c-.5-.7-1.4-.9-2.1-.4-.7.4-.9 1.3-.6 2 .2.3.5.6 1 .8h.2c.4.1.8 0 1.1-.2.4-.3.6-.6.7-1.1.1-.4 0-.8-.3-1.1zM376 26.3c-.8-.1-1.5.3-1.8 1-.1.4-.1.8.1 1.2.3.4.6.6 1.1.7h.1c.4.1.9 0 1.1-.3.4-.3.6-.6.6-1 .1-.7-.4-1.4-1.2-1.6zM370.7 22.4c-.4-.7-1.3-.9-2-.6-.3.2-.6.5-.8 1-.1.4-.1.8.2 1.3.3.4.6.6 1.1.7.4.1.8 0 1.1-.3.7-.4.9-1.4.4-2.1zM368.7 14.2c-.4-.1-.8-.1-1.2.1-.4.3-.6.6-.7 1.1s0 .9.3 1.3.5.6 1 .6c.8.1 1.6-.4 1.8-1.2 0-.9-.4-1.6-1.2-1.9zM374.2 8.8c-.2-.3-.5-.6-1-.8-.4-.1-.8-.1-1.3.2-.4.3-.6.6-.7 1.1-.1.4 0 .8.3 1.1s.6.6 1.1.6c.4.1.7 0 1.1-.2.6-.4.8-1.3.5-2zM381.7 7.5c-.3-.4-.6-.6-1.1-.7s-.9 0-1.3.3c-.3.2-.5.5-.5.9-.1.8.4 1.6 1.2 1.8h.1c.8.1 1.5-.3 1.7-1.1.1-.3.1-.8-.1-1.2zM387.9 12c-.3-.4-.6-.6-1.1-.7-.4-.1-.8 0-1.1.3-.7.5-.9 1.4-.4 2.1.2.4.7.7 1.1.7.3 0 .6 0 1-.2.3-.2.6-.5.8-1 0-.3-.1-.8-.3-1.2z"/></g></g><g><path class="st0" d="M396 0h36v36h-36z"/><path class="st1" d="M415.6 14.9c-.5 0-1 .2-1.4.6l-.1.2-.2-.2c-.4-.4-.9-.6-1.4-.6s-1 .2-1.4.6c-.4.4-.6.9-.6 1.4s.2 1 .6 1.4l2.6 2.6c.1.1.2.1.3.1s.2 0 .3-.1l2.6-2.6c.4-.4.6-.9.6-1.4s-.2-1-.6-1.4c-.3-.4-.8-.6-1.3-.6z"/><g opacity=".5"><path class="st27" d="M425.9 19.8c-.3-.4-.7-.6-1.1-.7-.9-.2-1.8.4-1.9 1.3-.1.8.3 1.7 1.1 2h.2c.3.1.8 0 1-.2.4-.3.7-.6.8-1.1.3-.5.2-1-.1-1.3zM420.9 26.5c-.5-.8-1.5-1-2.3-.5s-1 1.4-.6 2.2c.2.4.6.7 1 .9h.2c.4.1.9 0 1.2-.2.4-.3.7-.6.8-1.1s0-1-.3-1.3zM411.6 27c-.8-.1-1.7.3-2 1.1-.2.4-.1.9.1 1.3.3.4.6.7 1.1.8h.1c.4.1.9 0 1.2-.3.4-.3.6-.7.7-1.1.3-.8-.2-1.7-1.2-1.8zM406 22.6c-.5-.8-1.4-1-2.2-.6-.4.2-.7.6-.9 1-.2.5-.1.9.2 1.4.3.4.6.7 1.1.8.4.1.9 0 1.2-.3.9-.5 1.1-1.5.6-2.3zM403.9 13.7c-.4-.2-.9-.1-1.3.1-.4.3-.7.6-.8 1.1s0 1 .3 1.4c.3.4.6.6 1.1.7.9.2 1.8-.4 1.9-1.3.2-.9-.3-1.7-1.2-2zM410 7.9c-.2-.4-.6-.7-1-.9s-.9-.1-1.4.2c-.4.3-.7.6-.8 1.1-.1.4 0 .9.3 1.2s.7.6 1.2.7c.4.1.8 0 1.1-.2.7-.4 1-1.3.6-2.1zM418.2 6.7c-.3-.4-.6-.7-1.1-.8-.5-.1-1 0-1.4.3-.3.2-.5.6-.6 1-.2.9.4 1.8 1.3 1.9h.1c.8.1 1.7-.3 1.9-1.1.1-.4.1-.9-.2-1.3zM424.8 11.6c-.3-.4-.6-.7-1.1-.8-.4-.1-.9 0-1.2.3-.8.5-1 1.5-.5 2.3.3.5.7.7 1.1.8.3.1.7 0 1-.2.4-.2.7-.6.9-1 .2-.4.1-.9-.2-1.4z"/></g></g><g><path class="st0" d="M468 0h36v36h-36z"/><path class="st1" d="M488.4 13.1c-.9 0-1.6.3-2.2.9l-.2.2-.2-.2c-.6-.6-1.3-.9-2.2-.9s-1.6.3-2.2.9-.9 1.3-.9 2.2c0 .9.3 1.6.9 2.2l4.1 4.2c.1.1.3.2.5.2s.4-.1.5-.2l4.1-4.2c.6-.6.9-1.3.9-2.2 0-.9-.3-1.6-.9-2.2-.5-.5-1.3-.9-2.2-.9z"/><g opacity=".3"><path class="st29" d="M500.7 20.7c-.3-.5-.8-.8-1.3-.9-1.1-.2-2.2.4-2.4 1.5-.2 1 .3 2.1 1.3 2.5.1 0 .2 0 .3.1.4.1 1 0 1.3-.1.5-.3.9-.8 1-1.4.2-.6.1-1.2-.2-1.7zM494.2 28.8c-.6-1-1.9-1.2-2.8-.7-1 .5-1.3 1.7-.9 2.7.2.5.7.9 1.3 1.1h.2c.5.1 1.1 0 1.5-.2.5-.3.9-.8 1-1.4.2-.6.1-1.1-.3-1.5zM482.7 29c-1-.2-2.1.3-2.5 1.3-.2.5-.1 1.1.1 1.6.3.5.8.9 1.4 1h.1c.5.1 1.2 0 1.6-.3.5-.3.8-.8.9-1.3.1-1-.5-2.1-1.6-2.3zM475.9 23.4c-.5-1-1.7-1.3-2.7-.9-.5.2-.9.7-1.1 1.3-.2.6-.1 1.1.2 1.7.3.5.8.9 1.4 1 .5.1 1.1 0 1.6-.3.9-.6 1.2-1.8.6-2.8zM473.7 12.2c-.5-.2-1.1-.1-1.6.1-.5.3-.9.8-1 1.4s-.1 1.3.3 1.8.7.8 1.3.9c1.1.2 2.2-.4 2.4-1.5.2-1.3-.3-2.3-1.4-2.7zM481.5 5.2c-.2-.5-.7-.9-1.3-1.1-.6-.2-1.1-.1-1.7.2-.5.3-.9.8-1 1.4-.1.5 0 1.1.3 1.6s.8.8 1.4.9c.5.1 1 0 1.4-.2.9-.6 1.3-1.7.9-2.8zM491.7 4.1c-.3-.5-.8-.9-1.4-1-.6-.1-1.3-.1-1.8.3-.4.2-.7.7-.8 1.2-.2 1.1.4 2.2 1.5 2.4h.1c1 .2 2.1-.3 2.4-1.3.3-.5.3-1.1 0-1.6zM499.7 10.5c-.3-.5-.8-.9-1.4-1-.5-.1-1.1 0-1.6.3-1 .6-1.2 1.9-.7 2.8.3.6.9.9 1.4 1 .4.1.8.1 1.3-.1s.9-.7 1.1-1.3c.3-.5.2-1.1-.1-1.7z"/></g></g><g><path class="st0" d="M504 0h36v36h-36z"/><path class="st1" d="M524.9 12.3c-1 0-1.9.4-2.6 1.1l-.2.3-.3-.3c-.7-.7-1.6-1.1-2.6-1.1s-1.9.4-2.6 1.1c-.7.7-1.1 1.6-1.1 2.6s.4 1.9 1.1 2.6l4.8 4.9c.1.1.4.2.6.2.2 0 .4-.1.6-.2l4.8-4.9c.7-.7 1.1-1.6 1.1-2.6s-.4-1.9-1.1-2.6c-.6-.7-1.5-1.1-2.5-1.1z"/><g opacity=".2"><path class="st31" d="M537.6 21.2c-.3-.5-.8-.9-1.4-1-1.2-.3-2.4.4-2.6 1.6-.2 1.1.3 2.2 1.3 2.7.1 0 .2 0 .3.1.4.1 1 0 1.4-.1.5-.3 1-.8 1.1-1.4.3-.6.2-1.3-.1-1.9zM530.5 29.7c-.7-1.1-2-1.4-3-.8s-1.4 1.8-1 2.8c.2.5.7 1 1.3 1.2h.2c.5.1 1.1 0 1.6-.2.5-.3 1-.8 1.1-1.4.3-.6.2-1.2-.2-1.6zM518.3 29.7c-1.1-.2-2.2.3-2.7 1.3-.2.5-.2 1.2.1 1.7s.8 1 1.4 1.1h.1c.5.1 1.2.1 1.7-.3.5-.3.9-.8 1-1.4.2-.9-.4-2.1-1.6-2.4zM511.2 23.7c-.6-1-1.8-1.4-2.8-1-.5.2-1 .7-1.2 1.3-.3.6-.2 1.2.1 1.8.3.5.8 1 1.4 1.1.5.1 1.1 0 1.7-.3 1-.6 1.3-1.9.8-2.9zM509 11.7c-.5-.2-1.2-.2-1.7.1s-1 .8-1.1 1.4c-.1.6-.1 1.3.2 1.9s.7.8 1.4 1c1.2.3 2.4-.4 2.6-1.6.3-1.3-.2-2.3-1.4-2.8zM517.4 4.4c-.2-.5-.7-1-1.3-1.2-.6-.3-1.2-.2-1.8.1-.5.3-1 .8-1.1 1.4-.1.5 0 1.1.3 1.7s.8.9 1.5 1c.5.1 1 0 1.5-.2 1-.5 1.3-1.6.9-2.8zM528.3 3.4c-.3-.5-.8-1-1.4-1.1-.6-.1-1.3-.1-1.9.2-.4.2-.7.7-.9 1.3-.3 1.2.4 2.4 1.6 2.6h.1c1.1.2 2.2-.3 2.6-1.3.2-.5.3-1.1-.1-1.7zM536.7 10.4c-.3-.5-.8-1-1.4-1.1-.5-.1-1.1 0-1.7.3-1.1.7-1.4 2-.8 3 .3.6.9 1 1.4 1.1.4.1.9.1 1.4-.1.5-.2 1-.7 1.2-1.3.3-.6.2-1.3-.1-1.9z"/></g></g><g><path class="st0" d="M540 0h36v36h-36z"/><path class="st1" d="M561.2 11.4c-1.2 0-2.2.4-3 1.2l-.2.3-.3-.3c-.8-.8-1.8-1.2-3-1.2s-2.2.4-3 1.2-1.2 1.8-1.2 3 .4 2.2 1.2 3l5.6 5.7c.2.2.4.2.7.2s.5-.1.7-.2l5.6-5.7c.8-.8 1.2-1.8 1.2-3s-.4-2.2-1.2-3c-.8-.7-1.9-1.2-3.1-1.2z"/><g opacity=".1"><path class="st33" d="M574.4 21.6c-.3-.6-.9-.9-1.4-1.1-1.3-.3-2.5.3-2.8 1.6-.3 1.1.3 2.4 1.3 2.9.1 0 .2.1.3.1.5.1 1.1 0 1.5-.1.6-.3 1.1-.8 1.2-1.5.3-.5.2-1.3-.1-1.9zM566.7 30.5c-.7-1.1-2.1-1.5-3.2-.9s-1.6 1.9-1.1 3c.2.5.7 1 1.4 1.3.1 0 .2.1.2.1.6.1 1.2.1 1.7-.2.6-.3 1.1-.8 1.2-1.5.3-.7.2-1.3-.2-1.8zM553.7 30.3c-1.1-.3-2.4.3-2.9 1.3-.3.5-.2 1.3 0 1.8.3.6.8 1.1 1.5 1.2h.1c.6.1 1.3.1 1.8-.3.6-.3.9-.9 1.1-1.4.3-1.1-.3-2.3-1.6-2.6zM546.3 23.7c-.6-1.1-1.9-1.6-3-1.1-.5.2-1 .7-1.3 1.4-.3.7-.2 1.3.1 2 .3.6.8 1.1 1.5 1.2.6.1 1.2.1 1.8-.3 1.1-.7 1.5-2.1.9-3.2zM544.3 11c-.5-.3-1.3-.2-1.8 0-.6.3-1.1.8-1.2 1.5s-.1 1.4.2 2 .7.9 1.4 1.1c1.3.3 2.5-.3 2.8-1.6.3-1.4-.2-2.5-1.4-3zM553.3 3.4c-.2-.5-.7-1-1.4-1.3s-1.3-.2-2 .1c-.6.3-1.1.8-1.2 1.5-.1.6-.1 1.2.3 1.8.3.6.9.9 1.5 1.1.6.1 1.1 0 1.6-.2 1.2-.5 1.6-1.8 1.2-3zM564.9 2.6c-.3-.6-.8-1.1-1.5-1.2s-1.4-.1-2 .2c-.4.3-.8.8-.9 1.3-.3 1.3.3 2.5 1.6 2.8h.1c1.1.3 2.4-.3 2.8-1.4.2-.4.2-1.2-.1-1.7zM573.6 10.1c-.3-.6-.8-1.1-1.5-1.2-.6-.1-1.2-.1-1.8.3-1.1.7-1.5 2.1-.9 3.2.3.7.9 1.1 1.5 1.2.5.1.9.1 1.5-.1.5-.2 1-.7 1.3-1.4.3-.6.3-1.3-.1-2z"/></g></g><g><path class="st0" d="M36 0h36v36H36z"/><path class="st34" d="M57.3 17.8c-.1-.1-.2-.1-.3-.1-.3 0-.5.2-.5.4s.2.4.4.5h.1c.1 0 .2 0 .3-.1.1-.1.2-.2.2-.4.1-.1-.1-.1-.2-.3zM56.3 20c-.2-.2-.5-.2-.7 0-.2.2-.2.4-.1.6.1.1.2.2.3.2.1 0 .2 0 .3-.1.1-.1.2-.2.2-.4.1-.1.1-.3 0-.3zM53.8 20.5c-.2 0-.4.2-.5.4 0 .1 0 .3.1.4.1.1.2.2.4.2.1 0 .3 0 .3-.1.1-.1.1-.2.1-.3 0-.3-.1-.6-.4-.6zM52.1 19.7c-.2-.2-.4-.2-.6-.1-.1.1-.2.2-.2.3 0 .1 0 .3.1.4.1.1.2.2.4.2.1 0 .2 0 .3-.1.1-.4.1-.6 0-.7zM51.1 17.2c-.1 0-.3 0-.4.1-.1.1-.2.2-.2.4s0 .3.1.4c.1.1.2.1.3.1.3 0 .5-.2.5-.4 0-.3-.2-.6-.3-.6zM52.4 15.3c-.1-.1-.2-.2-.3-.2s-.3 0-.4.1-.2.2-.2.4c0 .1 0 .2.1.3.1.1.2.1.4.1.1 0 .2 0 .3-.1.3-.1.3-.3.1-.6zM54.7 14.6c-.1-.1-.2-.2-.4-.2s-.3 0-.4.1-.1.2-.1.3c0 .3.2.5.4.5s.4-.2.5-.4c.1-.1.1-.1 0-.3zM56.7 15.6c-.1-.1-.2-.2-.4-.2-.1 0-.2 0-.3.1-.2.2-.2.5 0 .7.1.1.2.2.4.2.1 0 .2 0 .3-.1.1-.1.2-.2.2-.3-.1-.1-.1-.2-.2-.4z"/><path class="st6" d="M54 17.5c-.3 0-.5.2-.5.5s.2.5.5.5.5-.2.5-.5-.2-.5-.5-.5z"/></g></svg>
