<?xml version="1.0" encoding="utf-8"?>
<!-- Generator: Adobe Illustrator 19.2.1, SVG Export Plug-In . SVG Version: 6.00 Build 0)  -->
<svg version="1.1" id="Layer_1" xmlns="http://www.w3.org/2000/svg" xmlns:xlink="http://www.w3.org/1999/xlink" x="0px" y="0px"
	 width="828px" height="36px" viewBox="0 0 828 36" style="enable-background:new 0 0 828 36;" xml:space="preserve">
<style type="text/css">
	.st0{fill:#C2FFFA;fill-opacity:0;}
	.st1{fill:#EE3633;}
	.st2{opacity:1.000000e-02;fill:#C2FFFA;enable-background:new    ;}
	.st3{opacity:0.4;}
	.st4{fill:#ED7D4A;}
	.st5{fill:#E9EBED;}
	.st6{fill:#12B5AF;}
	.st7{fill:#5320C4;}
	.st8{fill:#6322BF;}
	.st9{fill:#8F24BC;}
	.st10{opacity:0.95;fill:#12B5AF;enable-background:new    ;}
	.st11{fill:#E643F7;}
	.st12{opacity:0.9;fill:#12B5AF;enable-background:new    ;}
	.st13{fill:#F743F3;}
	.st14{opacity:0.8;fill:#12B5AF;enable-background:new    ;}
	.st15{opacity:0.9;}
	.st16{fill:#F743B2;}
	.st17{opacity:0.6;fill:#12B5AF;enable-background:new    ;}
	.st18{opacity:0.8;}
	.st19{fill:#F445DF;}
	.st20{opacity:0.4;fill:#12B5AF;enable-background:new    ;}
	.st21{opacity:0.7;}
	.st22{fill:#F74384;}
	.st23{opacity:0.2;fill:#12B5AF;enable-background:new    ;}
	.st24{opacity:0.6;}
	.st25{fill:#F24646;}
	.st26{opacity:0.5;}
	.st27{fill:#EF5848;}
	.st28{opacity:0.3;}
	.st29{fill:#ED804A;}
	.st30{opacity:0.2;}
	.st31{fill:#EDB24A;}
	.st32{opacity:0.1;}
	.st33{fill:#EDAB4A;}
	.st34{fill:#1E52C6;}
</style>
<g>
	<rect x="576" class="st0" width="36" height="36"/>
	<path class="st1" d="M597.5,11c-1.3,0-2.3,0.4-3.2,1.3l-0.3,0.3l-0.3-0.3c-0.9-0.9-1.9-1.3-3.2-1.3s-2.3,0.4-3.2,1.3
		s-1.3,1.9-1.3,3.2c0,1.3,0.4,2.3,1.3,3.2l6,6.1c0.2,0.2,0.4,0.3,0.7,0.3s0.6-0.1,0.7-0.3l6-6.1c0.9-0.9,1.3-1.9,1.3-3.2
		c0-1.3-0.4-2.3-1.3-3.2C600,11.5,598.8,11,597.5,11z"/>
</g>
<g>
	<rect x="612" class="st0" width="36" height="36"/>
	<path class="st1" d="M633.3,11.4c-1.2,0-2.2,0.4-3,1.2l-0.3,0.3l-0.3-0.3c-0.8-0.8-1.8-1.2-3-1.2s-2.2,0.4-3,1.2
		c-0.8,0.8-1.2,1.8-1.2,3s0.4,2.2,1.2,3l5.6,5.7c0.1,0.1,0.4,0.3,0.7,0.3s0.5-0.1,0.7-0.3l5.6-5.7c0.8-0.8,1.2-1.8,1.2-3
		s-0.4-2.2-1.2-3C635.6,11.8,634.5,11.4,633.3,11.4z"/>
</g>
<g>
	<rect x="648" class="st0" width="36" height="36"/>
	<path class="st1" d="M669.1,11.9c-1.1,0-2,0.4-2.8,1.2l-0.2,0.3l-0.3-0.3c-0.8-0.8-1.7-1.2-2.8-1.2s-2,0.4-2.8,1.2
		c-0.8,0.8-1.2,1.7-1.2,2.8c0,1.1,0.4,2,1.2,2.8l5.2,5.3c0.1,0.1,0.4,0.2,0.6,0.2s0.5-0.1,0.6-0.2l5.2-5.3c0.8-0.8,1.2-1.7,1.2-2.8
		s-0.4-2-1.2-2.8C671.2,12.2,670.2,11.9,669.1,11.9z"/>
</g>
<g>
	<rect x="684" class="st0" width="36" height="36"/>
	<path class="st1" d="M705.3,11.4c-1.2,0-2.2,0.4-3,1.2l-0.3,0.3l-0.3-0.3c-0.8-0.8-1.8-1.2-3-1.2s-2.2,0.4-3,1.2
		c-0.8,0.8-1.2,1.8-1.2,3s0.4,2.2,1.2,3l5.6,5.7c0.1,0.1,0.4,0.3,0.7,0.3s0.5-0.1,0.7-0.3l5.6-5.7c0.8-0.8,1.2-1.8,1.2-3
		s-0.4-2.2-1.2-3C707.6,11.8,706.5,11.4,705.3,11.4z"/>
</g>
<g>
	<rect x="720" class="st0" width="36" height="36"/>
	<path class="st1" d="M741.3,11.4c-1.2,0-2.2,0.4-3,1.2l-0.3,0.3l-0.3-0.3c-0.8-0.8-1.8-1.2-3-1.2s-2.2,0.4-3,1.2
		c-0.8,0.8-1.2,1.8-1.2,3s0.4,2.2,1.2,3l5.6,5.7c0.2,0.2,0.4,0.3,0.7,0.3s0.5-0.1,0.7-0.3l5.6-5.7c0.8-0.8,1.2-1.8,1.2-3
		s-0.4-2.2-1.2-3C743.6,11.9,742.5,11.4,741.3,11.4z"/>
</g>
<g>
	<rect x="756" class="st0" width="36" height="36"/>
	<path class="st1" d="M777.2,11.9c-1.1,0-2,0.4-2.8,1.1l-0.3,0.3l-0.3-0.3c-0.8-0.8-1.7-1.1-2.8-1.1s-2,0.4-2.8,1.1
		c-0.8,0.8-1.1,1.7-1.1,2.8s0.4,2,1.1,2.8l5.2,5.3c0.1,0.1,0.4,0.3,0.6,0.3s0.4-0.1,0.6-0.3l5.2-5.3c0.8-0.8,1.1-1.7,1.1-2.8
		s-0.4-2-1.1-2.8C779.3,12.4,778.3,11.9,777.2,11.9z"/>
</g>
<g>
	<rect x="792" class="st2" width="36" height="36"/>
	<path class="st1" d="M813.3,11.4c-1.2,0-2.2,0.4-3,1.2l-0.3,0.3l-0.3-0.3c-0.8-0.8-1.8-1.2-3-1.2s-2.2,0.4-3,1.2
		c-0.8,0.8-1.2,1.8-1.2,3s0.4,2.2,1.2,3l5.6,5.7c0.2,0.2,0.4,0.3,0.7,0.3s0.5-0.1,0.7-0.3l5.6-5.7c0.8-0.8,1.2-1.8,1.2-3
		s-0.4-2.2-1.2-3C815.6,11.9,814.5,11.4,813.3,11.4z"/>
</g>
<g>
	<rect x="432" class="st0" width="36" height="36"/>
	<g class="st3">
		<g>
			<g>
				<g>
					<path class="st4" d="M464.1,20.4c-0.3-0.5-0.8-0.8-1.3-0.9c-1.1-0.2-2.1,0.4-2.3,1.5c-0.2,1,0.3,2,1.3,2.4c0.1,0,0.2,0,0.3,0.1
						c0.4,0.1,0.9,0,1.3-0.2c0.5-0.3,0.9-0.7,1-1.3C464.5,21.4,464.4,20.8,464.1,20.4z"/>
				</g>
			</g>
		</g>
		<g>
			<g>
				<g>
					<path class="st4" d="M458,28.2c-0.6-0.9-1.8-1.2-2.7-0.6c-0.9,0.5-1.2,1.7-0.8,2.6c0.2,0.4,0.7,0.8,1.2,1.1c0.1,0,0.2,0,0.2,0
						c0.5,0.1,1,0,1.5-0.2c0.5-0.3,0.9-0.7,1-1.3C458.4,29.1,458.3,28.6,458,28.2z"/>
				</g>
			</g>
		</g>
		<g>
			<g>
				<g>
					<path class="st4" d="M446.9,28.6c-1-0.2-2,0.3-2.4,1.3c-0.2,0.5-0.1,1.1,0.1,1.5c0.3,0.5,0.7,0.9,1.3,1h0.1
						c0.5,0.1,1.1,0,1.5-0.3c0.5-0.3,0.8-0.8,0.9-1.3C448.6,29.9,448,28.8,446.9,28.6z"/>
				</g>
			</g>
		</g>
		<g>
			<g>
				<g>
					<path class="st4" d="M440.3,23.4c-0.5-0.9-1.7-1.2-2.6-0.8c-0.4,0.2-0.8,0.7-1.1,1.2c-0.2,0.6-0.1,1.1,0.2,1.7
						c0.3,0.5,0.7,0.9,1.3,1l0,0c0.5,0.1,1,0,1.5-0.3C440.6,25.5,440.8,24.3,440.3,23.4z"/>
				</g>
			</g>
		</g>
		<g>
			<g>
				<g>
					<path class="st4" d="M438,12.6c-0.5-0.2-1.1-0.1-1.5,0.1c-0.5,0.3-0.9,0.7-1,1.3s0,1.2,0.3,1.7s0.7,0.7,1.3,0.9l0,0
						c1.1,0.2,2.1-0.4,2.3-1.5C439.6,14,439,13,438,12.6z"/>
				</g>
			</g>
		</g>
		<g>
			<g>
				<g>
					<path class="st4" d="M445.3,5.8c-0.2-0.4-0.7-0.8-1.2-1.1c-0.6-0.2-1.1-0.1-1.7,0.2c-0.5,0.3-0.9,0.7-1,1.3
						c-0.1,0.5,0,1,0.3,1.5s0.8,0.8,1.4,0.9c0.5,0.1,0.9,0,1.4-0.2C445.5,7.9,445.8,6.8,445.3,5.8z"/>
				</g>
			</g>
		</g>
		<g>
			<g>
				<g>
					<path class="st4" d="M455.2,4.6c-0.3-0.5-0.7-0.9-1.3-1c-0.6-0.1-1.2,0-1.7,0.3c-0.4,0.2-0.6,0.7-0.7,1.2
						c-0.2,1.1,0.4,2.1,1.5,2.3h0.1c1,0.2,2-0.3,2.3-1.3C455.5,5.6,455.5,5,455.2,4.6z"/>
				</g>
			</g>
		</g>
		<g>
			<g>
				<g>
					<path class="st4" d="M463,10.6c-0.3-0.5-0.7-0.9-1.3-1c-0.5-0.1-1,0-1.5,0.3c-0.9,0.6-1.2,1.8-0.6,2.7c0.3,0.6,0.8,0.9,1.3,1
						c0.4,0.1,0.8,0.1,1.3-0.2c0.4-0.2,0.8-0.7,1.1-1.2C463.3,11.7,463.3,11.1,463,10.6z"/>
				</g>
			</g>
		</g>
	</g>
	<path class="st1" d="M452,14.1c-0.7,0-1.3,0.2-1.8,0.8l-0.2,0.2l-0.2-0.2c-0.5-0.5-1.1-0.8-1.8-0.8s-1.3,0.2-1.8,0.8
		s-0.8,1.1-0.8,1.8s0.2,1.3,0.8,1.8l3.4,3.4c0.1,0.1,0.2,0.1,0.4,0.1c0.2,0,0.3,0,0.4-0.1l3.4-3.4c0.5-0.5,0.8-1.1,0.8-1.8
		c0-0.7-0.2-1.3-0.8-1.8C453.4,14.4,452.7,14.1,452,14.1z"/>
</g>
<g>
	<rect x="0" class="st2" width="36" height="36"/>
	<path class="st5" d="M21.3,11.4c-1.2,0-2.2,0.4-3,1.2L18,12.9l-0.3-0.2c-0.8-0.8-1.8-1.2-3-1.2s-2.2,0.4-3,1.2
		c-0.8,0.8-1.2,1.8-1.2,3c0,1.2,0.4,2.2,1.2,3l5.6,5.7c0.2,0.2,0.4,0.3,0.7,0.3s0.5-0.1,0.7-0.3l5.6-5.7c0.8-0.8,1.2-1.8,1.2-3
		s-0.4-2.2-1.2-3C23.6,11.9,22.5,11.4,21.3,11.4z"/>
</g>
<g>
	<rect x="72" class="st0" width="36" height="36"/>
	<path class="st6" d="M90,19.5c-0.8,0-1.5-0.7-1.5-1.5s0.7-1.5,1.5-1.5s1.5,0.7,1.5,1.5S90.8,19.5,90,19.5z M90,17.5
		c-0.3,0-0.5,0.2-0.5,0.5s0.2,0.5,0.5,0.5s0.5-0.2,0.5-0.5S90.3,17.5,90,17.5z"/>
	<g>
		<g>
			<g>
				<g>
					<path class="st7" d="M94.3,17.9c-0.1-0.1-0.3-0.2-0.4-0.2c-0.3,0-0.6,0.2-0.6,0.6c0,0.3,0.2,0.6,0.5,0.6h0.1
						c0.1,0,0.3-0.1,0.4-0.1c0.1-0.1,0.2-0.3,0.2-0.4S94.4,18.1,94.3,17.9z"/>
				</g>
			</g>
		</g>
		<g>
			<g>
				<g>
					<path class="st7" d="M92.9,20.6c-0.2-0.2-0.6-0.3-0.8,0c-0.2,0.2-0.3,0.6-0.1,0.8c0.1,0.1,0.2,0.2,0.4,0.2h0.1
						c0.2,0,0.3-0.1,0.4-0.1c0.1-0.1,0.2-0.3,0.2-0.4C93.1,20.9,93,20.7,92.9,20.6z"/>
				</g>
			</g>
		</g>
		<g>
			<g>
				<g>
					<path class="st7" d="M89.6,21.3c-0.3,0-0.6,0.2-0.6,0.5c0,0.2,0,0.3,0.1,0.5c0.1,0.1,0.3,0.2,0.4,0.2l0,0
						c0.2,0,0.3-0.1,0.4-0.2c0.1-0.1,0.2-0.3,0.2-0.4C90.2,21.6,90,21.3,89.6,21.3z"/>
				</g>
			</g>
		</g>
		<g>
			<g>
				<g>
					<path class="st7" d="M87.4,20.1c-0.2-0.2-0.6-0.3-0.8-0.1c-0.1,0.1-0.2,0.2-0.2,0.4c0,0.2,0,0.3,0.1,0.5
						c0.1,0.1,0.3,0.2,0.4,0.2l0,0c0.2,0,0.3-0.1,0.4-0.2C87.6,20.7,87.6,20.3,87.4,20.1z"/>
				</g>
			</g>
		</g>
		<g>
			<g>
				<g>
					<path class="st7" d="M86.2,17c-0.2,0-0.3,0-0.5,0.1c-0.1,0.1-0.2,0.3-0.2,0.4c0,0.2,0.1,0.4,0.2,0.5c0.1,0.1,0.2,0.2,0.4,0.2
						l0,0c0.3,0,0.6-0.2,0.6-0.6C86.7,17.3,86.5,17.1,86.2,17z"/>
				</g>
			</g>
		</g>
		<g>
			<g>
				<g>
					<path class="st7" d="M88,14.6c-0.1-0.1-0.2-0.2-0.4-0.2c-0.2,0-0.3,0-0.5,0.1c-0.1,0.1-0.2,0.3-0.2,0.4c0,0.2,0.1,0.3,0.2,0.4
						c0.1,0.1,0.3,0.2,0.4,0.2c0.2,0,0.3-0.1,0.4-0.1C88.1,15.2,88.2,14.9,88,14.6z"/>
				</g>
			</g>
		</g>
		<g>
			<g>
				<g>
					<path class="st7" d="M90.8,13.7c-0.1-0.1-0.3-0.2-0.4-0.2c-0.2,0-0.4,0.1-0.5,0.2c-0.1,0.1-0.2,0.2-0.2,0.4
						c0,0.3,0.2,0.6,0.6,0.6l0,0c0.3,0,0.6-0.2,0.6-0.5C91,14,91,13.8,90.8,13.7z"/>
				</g>
			</g>
		</g>
		<g>
			<g>
				<g>
					<path class="st7" d="M93.5,15.1c-0.1-0.1-0.3-0.2-0.4-0.2c-0.2,0-0.3,0.1-0.4,0.2c-0.2,0.2-0.3,0.6,0,0.8
						c0.1,0.2,0.3,0.2,0.4,0.2c0.1,0,0.2,0,0.4-0.1c0.1-0.1,0.2-0.2,0.2-0.4C93.6,15.4,93.6,15.3,93.5,15.1z"/>
				</g>
			</g>
		</g>
	</g>
</g>
<g>
	<rect x="108" class="st0" width="36" height="36"/>
	<path class="st6" d="M126,21.5c-1.9,0-3.5-1.6-3.5-3.5s1.6-3.5,3.5-3.5s3.5,1.6,3.5,3.5S127.9,21.5,126,21.5z M126,15.5
		c-1.4,0-2.5,1.1-2.5,2.5s1.1,2.5,2.5,2.5s2.5-1.1,2.5-2.5S127.4,15.5,126,15.5z"/>
	<g>
		<g>
			<g>
				<g>
					<path class="st8" d="M131.4,18c-0.1-0.2-0.3-0.2-0.5-0.2c-0.4,0-0.7,0.3-0.8,0.7c0,0.4,0.2,0.7,0.6,0.8h0.1
						c0.1,0,0.3-0.1,0.4-0.1c0.2-0.1,0.3-0.3,0.3-0.5C131.6,18.4,131.5,18.2,131.4,18z"/>
				</g>
			</g>
		</g>
		<g>
			<g>
				<g>
					<path class="st8" d="M129.6,21.3c-0.3-0.3-0.7-0.3-1-0.1c-0.3,0.2-0.4,0.7-0.1,1c0.1,0.2,0.3,0.3,0.5,0.3h0.1
						c0.2,0,0.4-0.1,0.5-0.2c0.2-0.1,0.3-0.3,0.3-0.5C129.8,21.6,129.8,21.4,129.6,21.3z"/>
				</g>
			</g>
		</g>
		<g>
			<g>
				<g>
					<path class="st8" d="M125.6,22c-0.4,0-0.7,0.2-0.8,0.6c0,0.2,0,0.4,0.1,0.6s0.3,0.3,0.5,0.3l0,0c0.2,0,0.4-0.1,0.5-0.2
						c0.2-0.1,0.2-0.3,0.2-0.5C126.3,22.4,126,22.1,125.6,22z"/>
				</g>
			</g>
		</g>
		<g>
			<g>
				<g>
					<path class="st8" d="M122.9,20.5c-0.2-0.3-0.7-0.4-1-0.1c-0.2,0.1-0.3,0.3-0.3,0.5s0,0.4,0.2,0.6c0.1,0.2,0.3,0.3,0.5,0.3l0,0
						c0.2,0,0.4-0.1,0.5-0.2C123.1,21.2,123.1,20.8,122.9,20.5z"/>
				</g>
			</g>
		</g>
		<g>
			<g>
				<g>
					<path class="st8" d="M121.4,16.7c-0.2,0-0.4,0-0.6,0.1s-0.3,0.3-0.3,0.5s0.1,0.4,0.2,0.6s0.3,0.2,0.5,0.2l0,0
						c0.4,0,0.7-0.3,0.8-0.7C122.1,17.1,121.8,16.8,121.4,16.7z"/>
				</g>
			</g>
		</g>
		<g>
			<g>
				<g>
					<path class="st8" d="M123.7,13.8c-0.1-0.2-0.3-0.3-0.5-0.3s-0.4,0-0.6,0.2c-0.2,0.1-0.3,0.3-0.3,0.5c0,0.2,0.1,0.4,0.2,0.5
						c0.1,0.2,0.3,0.2,0.5,0.2s0.3-0.1,0.5-0.2C123.9,14.6,123.9,14.2,123.7,13.8z"/>
				</g>
			</g>
		</g>
		<g>
			<g>
				<g>
					<path class="st8" d="M127.2,12.8c-0.1-0.2-0.3-0.3-0.5-0.3s-0.4,0.1-0.6,0.2c-0.1,0.1-0.2,0.3-0.2,0.5c0,0.4,0.3,0.7,0.7,0.8
						l0,0c0.4,0,0.7-0.2,0.8-0.6C127.4,13.2,127.4,12.9,127.2,12.8z"/>
				</g>
			</g>
		</g>
		<g>
			<g>
				<g>
					<path class="st8" d="M130.4,14.5c-0.1-0.2-0.3-0.3-0.5-0.3s-0.4,0.1-0.5,0.2c-0.3,0.3-0.3,0.7-0.1,1c0.1,0.2,0.4,0.3,0.5,0.3
						s0.3,0,0.4-0.1c0.2-0.1,0.3-0.3,0.3-0.5C130.6,14.9,130.5,14.7,130.4,14.5z"/>
				</g>
			</g>
		</g>
	</g>
</g>
<g>
	<rect x="144" class="st0" width="36" height="36"/>
	<path class="st6" d="M162,23.5c-3,0-5.5-2.5-5.5-5.5s2.5-5.5,5.5-5.5s5.5,2.5,5.5,5.5S165,23.5,162,23.5z M162,13.5
		c-2.5,0-4.5,2-4.5,4.5s2,4.5,4.5,4.5s4.5-2,4.5-4.5C166.5,15.6,164.5,13.5,162,13.5z"/>
	<g>
		<g>
			<g>
				<g>
					<path class="st9" d="M168.3,18.2c-0.2-0.2-0.4-0.3-0.6-0.3c-0.5,0-0.9,0.3-0.9,0.8c0,0.4,0.3,0.8,0.7,1h0.1
						c0.2,0,0.4-0.1,0.5-0.1c0.2-0.2,0.3-0.4,0.3-0.6C168.5,18.6,168.4,18.2,168.3,18.2z"/>
				</g>
			</g>
		</g>
		<g>
			<g>
				<g>
					<path class="st9" d="M166.1,21.9c-0.3-0.4-0.9-0.4-1.2-0.1c-0.4,0.3-0.4,0.8-0.2,1.2c0.1,0.2,0.3,0.3,0.6,0.4h0.1
						c0.2,0,0.4-0.1,0.6-0.2c0.2-0.2,0.3-0.4,0.3-0.6C166.4,22.2,166.3,22.1,166.1,21.9z"/>
				</g>
			</g>
		</g>
		<g>
			<g>
				<g>
					<path class="st9" d="M161.4,22.8c-0.4,0-0.8,0.3-1,0.7c-0.1,0.2,0,0.5,0.1,0.7c0.2,0.2,0.4,0.3,0.6,0.3l0,0
						c0.2,0,0.5-0.1,0.6-0.2c0.2-0.2,0.3-0.4,0.3-0.6C162.2,23.2,161.8,22.8,161.4,22.8z"/>
				</g>
			</g>
		</g>
		<g>
			<g>
				<g>
					<path class="st9" d="M158.2,20.9c-0.3-0.4-0.8-0.4-1.2-0.2c-0.2,0.1-0.3,0.3-0.4,0.6c-0.1,0.3,0,0.5,0.2,0.7s0.4,0.3,0.6,0.3
						l0,0c0.2,0,0.4-0.1,0.6-0.2C158.4,21.8,158.5,21.2,158.2,20.9z"/>
				</g>
			</g>
		</g>
		<g>
			<g>
				<g>
					<path class="st9" d="M156.5,16.4c-0.2-0.1-0.5,0-0.7,0.1c-0.2,0.2-0.3,0.4-0.3,0.6c0,0.3,0.1,0.5,0.2,0.7
						c0.2,0.2,0.3,0.3,0.6,0.3l0,0c0.5,0,0.9-0.3,0.9-0.8C157.3,16.9,157,16.5,156.5,16.4z"/>
				</g>
			</g>
		</g>
		<g>
			<g>
				<g>
					<path class="st9" d="M159.3,13c-0.1-0.2-0.3-0.3-0.6-0.4c-0.3-0.1-0.5,0-0.7,0.2c-0.2,0.2-0.3,0.4-0.3,0.6s0.1,0.4,0.2,0.6
						c0.2,0.2,0.4,0.3,0.6,0.3c0.2,0,0.4-0.1,0.6-0.2C159.5,13.9,159.5,13.4,159.3,13z"/>
				</g>
			</g>
		</g>
		<g>
			<g>
				<g>
					<path class="st9" d="M163.5,11.9c-0.2-0.2-0.4-0.3-0.6-0.3c-0.3,0-0.5,0.1-0.7,0.2c-0.1,0.1-0.2,0.3-0.2,0.6
						c0,0.5,0.3,0.9,0.8,0.9l0,0c0.4,0,0.8-0.3,0.9-0.7C163.6,12.2,163.6,12.1,163.5,11.9z"/>
				</g>
			</g>
		</g>
		<g>
			<g>
				<g>
					<path class="st9" d="M167.2,14c-0.2-0.2-0.4-0.3-0.6-0.3c-0.2,0-0.4,0.1-0.6,0.2c-0.4,0.3-0.4,0.9-0.1,1.2
						c0.2,0.2,0.4,0.3,0.6,0.3c0.2,0,0.4,0,0.5-0.1c0.2-0.1,0.3-0.3,0.4-0.6C167.4,14.5,167.3,14.1,167.2,14z"/>
				</g>
			</g>
		</g>
	</g>
</g>
<g>
	<rect x="180" class="st0" width="36" height="36"/>
	<path class="st10" d="M198,25.5c-4.1,0-7.5-3.4-7.5-7.5s3.4-7.5,7.5-7.5s7.5,3.4,7.5,7.5S202.1,25.5,198,25.5z M198,11.5
		c-3.6,0-6.5,2.9-6.5,6.5s2.9,6.5,6.5,6.5s6.5-2.9,6.5-6.5S201.6,11.5,198,11.5z"/>
	<g>
		<g>
			<g>
				<g>
					<path class="st11" d="M205.2,18.2c-0.2-0.2-0.4-0.3-0.7-0.4c-0.6,0-1,0.3-1.1,0.9c0,0.5,0.3,1,0.8,1.1c0.1,0,0.1,0,0.2,0
						c0.2,0,0.5-0.1,0.6-0.2c0.2-0.2,0.4-0.4,0.4-0.7C205.5,18.8,205.4,18.5,205.2,18.2z"/>
				</g>
			</g>
		</g>
		<g>
			<g>
				<g>
					<path class="st11" d="M202.7,22.6c-0.4-0.4-1-0.5-1.4-0.1c-0.4,0.3-0.5,0.9-0.2,1.3c0.1,0.2,0.4,0.4,0.7,0.5c0.1,0,0.1,0,0.1,0
						c0.3,0,0.5-0.1,0.7-0.2c0.2-0.2,0.4-0.4,0.4-0.7C202.9,23,202.9,22.8,202.7,22.6z"/>
				</g>
			</g>
		</g>
		<g>
			<g>
				<g>
					<path class="st11" d="M197.2,23.5c-0.5,0-1,0.3-1.1,0.8c-0.1,0.2,0,0.6,0.1,0.8c0.2,0.2,0.4,0.4,0.7,0.4h0.1
						c0.3,0,0.6-0.1,0.7-0.3c0.2-0.2,0.3-0.4,0.4-0.7C198.1,24,197.7,23.5,197.2,23.5z"/>
				</g>
			</g>
		</g>
		<g>
			<g>
				<g>
					<path class="st11" d="M193.5,21.2c-0.3-0.4-0.9-0.5-1.3-0.2c-0.2,0.1-0.4,0.4-0.5,0.7c-0.1,0.3,0,0.6,0.2,0.8
						c0.2,0.2,0.4,0.4,0.7,0.4l0,0c0.3,0,0.5-0.1,0.7-0.3C193.8,22.2,193.9,21.7,193.5,21.2z"/>
				</g>
			</g>
		</g>
		<g>
			<g>
				<g>
					<path class="st11" d="M191.7,16c-0.2-0.1-0.6,0-0.8,0.1c-0.2,0.2-0.4,0.4-0.4,0.7c0,0.3,0.1,0.6,0.2,0.8
						c0.2,0.2,0.4,0.3,0.7,0.4l0,0c0.6,0,1-0.3,1.1-0.9C192.6,16.6,192.3,16.2,191.7,16z"/>
				</g>
			</g>
		</g>
		<g>
			<g>
				<g>
					<path class="st11" d="M195,12.2c-0.1-0.2-0.4-0.4-0.7-0.5s-0.6,0-0.8,0.2s-0.4,0.4-0.4,0.7s0.1,0.5,0.3,0.7s0.4,0.3,0.7,0.4
						c0.3,0,0.5-0.1,0.7-0.2C195.2,13.2,195.2,12.7,195,12.2z"/>
				</g>
			</g>
		</g>
		<g>
			<g>
				<g>
					<path class="st11" d="M199.8,11c-0.2-0.2-0.4-0.4-0.7-0.4s-0.6,0.1-0.8,0.2c-0.2,0.1-0.3,0.4-0.3,0.6c0,0.6,0.3,1,0.9,1.1h0.1
						c0.5,0,1-0.3,1.1-0.8C200,11.5,200,11.2,199.8,11z"/>
				</g>
			</g>
		</g>
		<g>
			<g>
				<g>
					<path class="st11" d="M204.1,13.5c-0.2-0.2-0.4-0.4-0.7-0.4s-0.5,0.1-0.7,0.3c-0.4,0.4-0.5,1-0.1,1.4c0.2,0.3,0.5,0.4,0.7,0.4
						s0.4,0,0.6-0.2c0.2-0.1,0.4-0.4,0.5-0.7C204.3,14.1,204.2,13.7,204.1,13.5z"/>
				</g>
			</g>
		</g>
	</g>
</g>
<g>
	<rect x="216" class="st0" width="36" height="36"/>
	<path class="st12" d="M234,27.5c-5.2,0-9.5-4.3-9.5-9.5s4.3-9.5,9.5-9.5s9.5,4.3,9.5,9.5S239.2,27.5,234,27.5z M234,9.5
		c-4.7,0-8.5,3.8-8.5,8.5s3.8,8.5,8.5,8.5s8.5-3.8,8.5-8.5S238.7,9.5,234,9.5z"/>
	<g>
		<g>
			<g>
				<g>
					<path class="st13" d="M242.2,18.5c-0.2-0.2-0.5-0.4-0.8-0.4c-0.6-0.1-1.2,0.4-1.2,1c0,0.6,0.3,1.1,0.9,1.3c0.1,0,0.1,0,0.2,0
						c0.2,0,0.5-0.1,0.7-0.2c0.2-0.2,0.4-0.5,0.5-0.8C242.5,19,242.4,18.7,242.2,18.5z"/>
				</g>
			</g>
		</g>
		<g>
			<g>
				<g>
					<path class="st13" d="M239.2,23.2c-0.4-0.5-1.1-0.6-1.6-0.2c-0.5,0.4-0.6,1-0.3,1.5c0.2,0.2,0.4,0.4,0.8,0.5c0.1,0,0.1,0,0.1,0
						c0.3,0,0.6-0.1,0.8-0.2c0.2-0.2,0.4-0.5,0.5-0.8C239.5,23.8,239.4,23.5,239.2,23.2z"/>
				</g>
			</g>
		</g>
		<g>
			<g>
				<g>
					<path class="st13" d="M232.9,24.2c-0.6,0-1.1,0.3-1.3,0.9c-0.1,0.3,0,0.6,0.2,0.9c0.2,0.2,0.5,0.4,0.8,0.5h0.1
						c0.3,0,0.6-0.1,0.8-0.3c0.2-0.2,0.4-0.5,0.4-0.8C234,24.8,233.6,24.2,232.9,24.2z"/>
				</g>
			</g>
		</g>
		<g>
			<g>
				<g>
					<path class="st13" d="M228.9,21.5c-0.4-0.5-1-0.6-1.5-0.3c-0.2,0.2-0.4,0.4-0.5,0.8c-0.1,0.3,0,0.6,0.2,0.9
						c0.2,0.2,0.5,0.4,0.8,0.5l0,0c0.3,0,0.6-0.1,0.8-0.3C229.2,22.8,229.2,22,228.9,21.5z"/>
				</g>
			</g>
		</g>
		<g>
			<g>
				<g>
					<path class="st13" d="M226.9,15.6c-0.3-0.1-0.6,0-0.9,0.2c-0.2,0.2-0.4,0.5-0.5,0.8c0,0.3,0.1,0.7,0.3,0.9s0.4,0.4,0.8,0.4l0,0
						c0.6,0.1,1.2-0.4,1.2-1C227.9,16.2,227.5,15.8,226.9,15.6z"/>
				</g>
			</g>
		</g>
		<g>
			<g>
				<g>
					<path class="st13" d="M230.7,11.3c-0.2-0.2-0.4-0.4-0.8-0.5s-0.6,0-0.9,0.2c-0.2,0.2-0.4,0.5-0.5,0.8c0,0.3,0.1,0.6,0.3,0.8
						s0.5,0.4,0.8,0.4s0.5-0.1,0.8-0.2C230.9,12.4,231,11.8,230.7,11.3z"/>
				</g>
			</g>
		</g>
		<g>
			<g>
				<g>
					<path class="st13" d="M236.2,10.1c-0.2-0.2-0.5-0.4-0.8-0.5c-0.3,0-0.7,0.1-0.9,0.3s-0.3,0.4-0.3,0.7c-0.1,0.6,0.4,1.2,1,1.2
						h0.1c0.6,0,1.1-0.3,1.2-0.9C236.4,10.6,236.4,10.2,236.2,10.1z"/>
				</g>
			</g>
		</g>
		<g>
			<g>
				<g>
					<path class="st13" d="M241,12.9c-0.2-0.2-0.5-0.4-0.8-0.5c-0.3,0-0.6,0.1-0.8,0.3c-0.5,0.4-0.6,1.1-0.2,1.6
						c0.2,0.3,0.5,0.4,0.8,0.5c0.2,0,0.5,0,0.7-0.2s0.4-0.4,0.5-0.8C241.2,13.6,241.2,13.2,241,12.9z"/>
				</g>
			</g>
		</g>
	</g>
</g>
<g>
	<rect x="252" class="st0" width="36" height="36"/>
	<path class="st14" d="M270,29.5c-6.3,0-11.5-5.2-11.5-11.5S263.7,6.5,270,6.5s11.5,5.2,11.5,11.5S276.3,29.5,270,29.5z M270,7.5
		c-5.8,0-10.5,4.7-10.5,10.5s4.7,10.5,10.5,10.5s10.5-4.7,10.5-10.5S275.8,7.5,270,7.5z"/>
	<g class="st15">
		<g>
			<g>
				<g>
					<path class="st16" d="M278.2,18.6c-0.2-0.3-0.5-0.4-0.8-0.4c-0.6-0.1-1.2,0.3-1.2,1c-0.1,0.6,0.3,1.1,0.8,1.3
						c0.1,0,0.1,0,0.2,0c0.2,0,0.5-0.1,0.7-0.2c0.3-0.2,0.5-0.5,0.5-0.8C278.5,19.2,278.4,18.9,278.2,18.6z"/>
				</g>
			</g>
		</g>
		<g>
			<g>
				<g>
					<path class="st16" d="M275.1,23.4c-0.4-0.5-1.1-0.6-1.6-0.2c-0.5,0.3-0.6,1-0.3,1.5c0.1,0.2,0.4,0.4,0.7,0.5c0.1,0,0.1,0,0.1,0
						c0.3,0,0.6-0.1,0.8-0.2c0.3-0.2,0.5-0.5,0.5-0.8C275.4,23.9,275.3,23.6,275.1,23.4z"/>
				</g>
			</g>
		</g>
		<g>
			<g>
				<g>
					<path class="st16" d="M268.8,24.2c-0.6-0.1-1.1,0.3-1.3,0.8c-0.1,0.3,0,0.6,0.1,0.9c0.2,0.3,0.5,0.5,0.8,0.5h0.1
						c0.3,0,0.6,0,0.8-0.3c0.3-0.2,0.4-0.5,0.4-0.8C269.9,24.8,269.5,24.2,268.8,24.2z"/>
				</g>
			</g>
		</g>
		<g>
			<g>
				<g>
					<path class="st16" d="M264.8,21.5c-0.3-0.5-1-0.6-1.5-0.3c-0.2,0.1-0.4,0.4-0.5,0.7c-0.1,0.3,0,0.6,0.2,0.9s0.5,0.5,0.8,0.5
						l0,0c0.3,0,0.6-0.1,0.8-0.3C265.1,22.7,265.2,22,264.8,21.5z"/>
				</g>
			</g>
		</g>
		<g>
			<g>
				<g>
					<path class="st16" d="M263,15.5c-0.3-0.1-0.6,0-0.9,0.1c-0.3,0.2-0.5,0.5-0.5,0.8s0,0.7,0.2,0.9s0.4,0.4,0.8,0.4l0,0
						c0.6,0.1,1.2-0.3,1.2-1C263.9,16.2,263.6,15.7,263,15.5z"/>
				</g>
			</g>
		</g>
		<g>
			<g>
				<g>
					<path class="st16" d="M266.8,11.3c-0.1-0.2-0.4-0.4-0.7-0.5c-0.3-0.1-0.6,0-0.9,0.2s-0.5,0.5-0.5,0.8s0.1,0.6,0.3,0.8
						s0.5,0.4,0.8,0.4s0.5-0.1,0.8-0.2C267,12.5,267.1,11.8,266.8,11.3z"/>
				</g>
			</g>
		</g>
		<g>
			<g>
				<g>
					<path class="st16" d="M272.3,10.1c-0.2-0.3-0.5-0.5-0.8-0.5s-0.7,0-0.9,0.2c-0.2,0.2-0.3,0.4-0.4,0.7c-0.1,0.6,0.3,1.2,1,1.2
						h0.1c0.6,0.1,1.1-0.3,1.2-0.8C272.5,10.7,272.5,10.4,272.3,10.1z"/>
				</g>
			</g>
		</g>
		<g>
			<g>
				<g>
					<path class="st16" d="M277,13.1c-0.2-0.3-0.5-0.5-0.8-0.5s-0.6,0.1-0.8,0.3c-0.5,0.4-0.6,1.1-0.2,1.6c0.2,0.3,0.5,0.5,0.8,0.5
						c0.2,0,0.5,0,0.7-0.2c0.2-0.1,0.4-0.4,0.5-0.7C277.3,13.8,277.2,13.4,277,13.1z"/>
				</g>
			</g>
		</g>
	</g>
</g>
<g>
	<rect x="288" class="st0" width="36" height="36"/>
	<path class="st17" d="M306,31.5c-7.4,0-13.5-6.1-13.5-13.5S298.6,4.5,306,4.5s13.5,6.1,13.5,13.5S313.4,31.5,306,31.5z M306,5.5
		c-6.9,0-12.5,5.6-12.5,12.5s5.6,12.5,12.5,12.5s12.5-5.6,12.5-12.5S312.9,5.5,306,5.5z"/>
	<g class="st18">
		<g>
			<g>
				<g>
					<path class="st19" d="M315.1,18.9c-0.2-0.3-0.5-0.4-0.8-0.5c-0.7-0.1-1.3,0.4-1.4,1s0.3,1.3,0.9,1.5c0.1,0,0.1,0,0.2,0
						c0.3,0,0.6-0.1,0.8-0.2c0.3-0.2,0.5-0.5,0.6-0.9C315.4,19.5,315.3,19.1,315.1,18.9z"/>
				</g>
			</g>
		</g>
		<g>
			<g>
				<g>
					<path class="st19" d="M311.6,24.1c-0.4-0.6-1.2-0.7-1.8-0.3s-0.7,1.1-0.4,1.7c0.2,0.3,0.5,0.5,0.8,0.6c0.1,0,0.1,0,0.1,0
						c0.3,0,0.6,0,0.9-0.2s0.5-0.5,0.6-0.9C311.9,24.6,311.8,24.4,311.6,24.1z"/>
				</g>
			</g>
		</g>
		<g>
			<g>
				<g>
					<path class="st19" d="M304.6,24.9c-0.6-0.1-1.3,0.3-1.5,0.9c-0.1,0.3,0,0.7,0.1,1c0.2,0.3,0.5,0.5,0.9,0.6h0.1
						c0.3,0,0.7,0,0.9-0.3c0.3-0.2,0.4-0.5,0.5-0.8C305.7,25.5,305.3,25,304.6,24.9z"/>
				</g>
			</g>
		</g>
		<g>
			<g>
				<g>
					<path class="st19" d="M300.1,21.9c-0.4-0.6-1.1-0.7-1.7-0.4c-0.3,0.2-0.5,0.5-0.6,0.8c-0.1,0.4,0,0.7,0.2,1.1
						c0.2,0.3,0.5,0.5,0.9,0.6l0,0c0.3,0,0.6,0,0.9-0.3C300.4,23.1,300.5,22.4,300.1,21.9z"/>
				</g>
			</g>
		</g>
		<g>
			<g>
				<g>
					<path class="st19" d="M298.2,15.1c-0.3-0.1-0.7,0-1,0.1c-0.3,0.2-0.5,0.5-0.6,0.9c0,0.4,0,0.8,0.3,1.1c0.2,0.3,0.5,0.4,0.8,0.5
						l0,0c0.7,0.1,1.3-0.4,1.4-1C299.3,15.9,298.9,15.4,298.2,15.1z"/>
				</g>
			</g>
		</g>
		<g>
			<g>
				<g>
					<path class="st19" d="M302.6,10.4c-0.2-0.3-0.5-0.5-0.8-0.6s-0.7,0-1.1,0.2c-0.3,0.2-0.5,0.5-0.6,0.9c0,0.3,0,0.6,0.3,0.9
						c0.2,0.3,0.5,0.4,0.9,0.5c0.3,0,0.6-0.1,0.9-0.2C302.7,11.8,302.9,11.1,302.6,10.4z"/>
				</g>
			</g>
		</g>
		<g>
			<g>
				<g>
					<path class="st19" d="M308.7,9.2c-0.2-0.3-0.5-0.5-0.9-0.6c-0.4,0-0.8,0-1.1,0.3c-0.2,0.2-0.4,0.5-0.4,0.8
						c-0.1,0.7,0.4,1.3,1,1.4h0.1c0.6,0.1,1.3-0.3,1.4-0.9C309,9.9,309,9.6,308.7,9.2z"/>
				</g>
			</g>
		</g>
		<g>
			<g>
				<g>
					<path class="st19" d="M314,12.6c-0.2-0.3-0.5-0.5-0.9-0.6c-0.3,0-0.6,0-0.9,0.3c-0.6,0.4-0.7,1.2-0.3,1.8
						c0.2,0.3,0.6,0.5,0.9,0.6c0.3,0,0.5,0,0.8-0.2s0.5-0.5,0.6-0.8C314.3,13.4,314.2,13.1,314,12.6z"/>
				</g>
			</g>
		</g>
	</g>
</g>
<g>
	<rect x="324" class="st0" width="36" height="36"/>
	<path class="st20" d="M342,33.5c-8.5,0-15.5-7-15.5-15.5s7-15.5,15.5-15.5s15.5,7,15.5,15.5S350.5,33.5,342,33.5z M342,3.5
		c-8,0-14.5,6.5-14.5,14.5S334,32.5,342,32.5S356.5,26,356.5,18S350,3.5,342,3.5z"/>
	<path class="st1" d="M342.7,16.8c-0.2,0-0.4,0.1-0.6,0.2V17L342,17c-0.2-0.2-0.4-0.2-0.6-0.2s-0.4,0.1-0.6,0.2
		c-0.2,0.1-0.2,0.4-0.2,0.6s0.1,0.4,0.2,0.6l1.1,1.1h0.1h0.1l1.1-1.1c0.2-0.2,0.2-0.4,0.2-0.6s-0.1-0.4-0.2-0.6
		C343.1,16.8,342.9,16.8,342.7,16.8z"/>
	<g class="st21">
		<g>
			<g>
				<g>
					<path class="st22" d="M352.1,19.2c-0.2-0.3-0.6-0.5-0.9-0.6c-0.8-0.1-1.5,0.4-1.6,1.1s0.3,1.4,1,1.6c0.1,0,0.1,0,0.2,0
						c0.3,0,0.6-0.1,0.9-0.2c0.3-0.2,0.6-0.6,0.6-1C352.4,19.9,352.3,19.5,352.1,19.2z"/>
				</g>
			</g>
		</g>
		<g>
			<g>
				<g>
					<path class="st22" d="M348.1,24.9c-0.5-0.6-1.3-0.8-1.9-0.3c-0.6,0.4-0.8,1.2-0.5,1.9c0.2,0.3,0.5,0.6,0.9,0.7
						c0.1,0,0.1,0,0.1,0c0.3,0,0.7,0,1-0.2s0.6-0.6,0.6-1C348.4,25.6,348.3,25.2,348.1,24.9z"/>
				</g>
			</g>
		</g>
		<g>
			<g>
				<g>
					<path class="st22" d="M340.3,25.6c-0.7-0.1-1.4,0.3-1.6,1c-0.1,0.3,0,0.8,0.1,1.1c0.2,0.3,0.6,0.6,1,0.6h0.1c0.3,0,0.8,0,1-0.3
						c0.3-0.2,0.5-0.6,0.6-0.9C341.5,26.4,341.1,25.7,340.3,25.6z"/>
				</g>
			</g>
		</g>
		<g>
			<g>
				<g>
					<path class="st22" d="M335.4,22.2c-0.4-0.6-1.2-0.8-1.9-0.5c-0.3,0.2-0.6,0.5-0.7,0.9s0,0.8,0.2,1.2c0.2,0.3,0.6,0.6,1,0.6l0,0
						c0.3,0,0.7,0,1-0.3C335.7,23.6,335.8,22.8,335.4,22.2z"/>
				</g>
			</g>
		</g>
		<g>
			<g>
				<g>
					<path class="st22" d="M333.4,14.7c-0.3-0.1-0.8,0-1.1,0.1c-0.3,0.2-0.6,0.6-0.6,1c-0.1,0.4,0,0.9,0.3,1.2
						c0.2,0.3,0.5,0.5,0.9,0.6l0,0c0.8,0.1,1.5-0.4,1.6-1.1C334.6,15.6,334.2,15,333.4,14.7z"/>
				</g>
			</g>
		</g>
		<g>
			<g>
				<g>
					<path class="st22" d="M338.3,9.6c-0.2-0.3-0.5-0.6-0.9-0.7c-0.4-0.1-0.8,0-1.2,0.2c-0.3,0.2-0.6,0.6-0.6,1c0,0.3,0,0.7,0.3,1
						c0.2,0.3,0.6,0.5,1,0.6c0.3,0,0.6-0.1,1-0.2C338.5,11.1,338.7,10.3,338.3,9.6z"/>
				</g>
			</g>
		</g>
		<g>
			<g>
				<g>
					<path class="st22" d="M345.2,8.4c-0.2-0.3-0.6-0.6-1-0.6c-0.4-0.1-0.9,0-1.2,0.3c-0.2,0.2-0.4,0.5-0.5,0.9
						c-0.1,0.8,0.4,1.5,1.1,1.6h0.1c0.7,0.1,1.4-0.3,1.6-1C345.4,9.1,345.4,8.7,345.2,8.4z"/>
				</g>
			</g>
		</g>
		<g>
			<g>
				<g>
					<path class="st22" d="M350.9,12.3c-0.2-0.3-0.6-0.6-1-0.6c-0.3,0-0.7,0-1,0.3c-0.6,0.5-0.8,1.3-0.3,1.9c0.2,0.4,0.6,0.6,1,0.6
						c0.3,0,0.6,0,0.9-0.2s0.6-0.5,0.7-0.9C351.2,13.2,351.1,12.7,350.9,12.3z"/>
				</g>
			</g>
		</g>
	</g>
</g>
<g>
	<rect x="360" class="st0" width="36" height="36"/>
	<path class="st23" d="M378,35.5c-9.6,0-17.5-7.9-17.5-17.5S368.4,0.5,378,0.5s17.5,7.9,17.5,17.5S387.6,35.5,378,35.5z M378,1.5
		c-9.1,0-16.5,7.4-16.5,16.5s7.4,16.5,16.5,16.5s16.5-7.4,16.5-16.5S387.1,1.5,378,1.5z"/>
	<path class="st1" d="M379.1,15.8c-0.4,0-0.7,0.1-1,0.4l-0.1,0.1l-0.1-0.1c-0.3-0.3-0.6-0.4-1-0.4s-0.7,0.1-1,0.4
		c-0.3,0.3-0.4,0.6-0.4,1c0,0.4,0.1,0.7,0.4,1l1.9,1.9c0.1,0.1,0.1,0.1,0.2,0.1s0.2,0,0.2-0.1l1.9-1.9c0.3-0.3,0.4-0.6,0.4-1
		c0-0.4-0.1-0.7-0.4-1C379.9,16,379.5,15.8,379.1,15.8z"/>
	<g class="st24">
		<g>
			<g>
				<g>
					<path class="st25" d="M389,19.5c-0.3-0.4-0.6-0.6-1-0.6c-0.8-0.1-1.6,0.4-1.8,1.2c-0.1,0.8,0.3,1.5,1,1.8c0.1,0,0.2,0,0.2,0
						c0.3,0,0.7,0,1-0.2c0.4-0.3,0.6-0.6,0.7-1.1C389.3,20.3,389.3,19.8,389,19.5z"/>
				</g>
			</g>
		</g>
		<g>
			<g>
				<g>
					<path class="st25" d="M384.5,25.7c-0.5-0.7-1.4-0.9-2.1-0.4c-0.7,0.4-0.9,1.3-0.6,2c0.2,0.3,0.5,0.6,1,0.8c0.1,0,0.2,0,0.2,0
						c0.4,0.1,0.8,0,1.1-0.2c0.4-0.3,0.6-0.6,0.7-1.1C384.9,26.4,384.8,26,384.5,25.7z"/>
				</g>
			</g>
		</g>
		<g>
			<g>
				<g>
					<path class="st25" d="M376,26.3c-0.8-0.1-1.5,0.3-1.8,1c-0.1,0.4-0.1,0.8,0.1,1.2c0.3,0.4,0.6,0.6,1.1,0.7h0.1
						c0.4,0.1,0.9,0,1.1-0.3c0.4-0.3,0.6-0.6,0.6-1C377.3,27.2,376.8,26.5,376,26.3z"/>
				</g>
			</g>
		</g>
		<g>
			<g>
				<g>
					<path class="st25" d="M370.7,22.4c-0.4-0.7-1.3-0.9-2-0.6c-0.3,0.2-0.6,0.5-0.8,1c-0.1,0.4-0.1,0.8,0.2,1.3
						c0.3,0.4,0.6,0.6,1.1,0.7l0,0c0.4,0.1,0.8,0,1.1-0.3C371,24.1,371.2,23.1,370.7,22.4z"/>
				</g>
			</g>
		</g>
		<g>
			<g>
				<g>
					<path class="st25" d="M368.7,14.2c-0.4-0.1-0.8-0.1-1.2,0.1c-0.4,0.3-0.6,0.6-0.7,1.1s0,0.9,0.3,1.3c0.3,0.4,0.5,0.6,1,0.6l0,0
						c0.8,0.1,1.6-0.4,1.8-1.2C369.9,15.2,369.5,14.5,368.7,14.2z"/>
				</g>
			</g>
		</g>
		<g>
			<g>
				<g>
					<path class="st25" d="M374.2,8.8c-0.2-0.3-0.5-0.6-1-0.8c-0.4-0.1-0.8-0.1-1.3,0.2c-0.4,0.3-0.6,0.6-0.7,1.1
						c-0.1,0.4,0,0.8,0.3,1.1s0.6,0.6,1.1,0.6c0.4,0.1,0.7,0,1.1-0.2C374.3,10.4,374.5,9.5,374.2,8.8z"/>
				</g>
			</g>
		</g>
		<g>
			<g>
				<g>
					<path class="st25" d="M381.7,7.5c-0.3-0.4-0.6-0.6-1.1-0.7s-0.9,0-1.3,0.3c-0.3,0.2-0.5,0.5-0.5,0.9c-0.1,0.8,0.4,1.6,1.2,1.8
						h0.1c0.8,0.1,1.5-0.3,1.7-1.1C381.9,8.4,381.9,7.9,381.7,7.5z"/>
				</g>
			</g>
		</g>
		<g>
			<g>
				<g>
					<path class="st25" d="M387.9,12c-0.3-0.4-0.6-0.6-1.1-0.7c-0.4-0.1-0.8,0-1.1,0.3c-0.7,0.5-0.9,1.4-0.4,2.1
						c0.2,0.4,0.7,0.7,1.1,0.7c0.3,0,0.6,0,1-0.2c0.3-0.2,0.6-0.5,0.8-1C388.2,12.9,388.1,12.4,387.9,12z"/>
				</g>
			</g>
		</g>
	</g>
</g>
<g>
	<rect x="396" class="st0" width="36" height="36"/>
	<path class="st1" d="M415.6,14.9c-0.5,0-1,0.2-1.4,0.6l-0.1,0.2l-0.2-0.2c-0.4-0.4-0.9-0.6-1.4-0.6s-1,0.2-1.4,0.6
		c-0.4,0.4-0.6,0.9-0.6,1.4s0.2,1,0.6,1.4l2.6,2.6c0.1,0.1,0.2,0.1,0.3,0.1s0.2,0,0.3-0.1l2.6-2.6c0.4-0.4,0.6-0.9,0.6-1.4
		s-0.2-1-0.6-1.4C416.6,15.1,416.1,14.9,415.6,14.9z"/>
	<g class="st26">
		<g>
			<g>
				<g>
					<path class="st27" d="M425.9,19.8c-0.3-0.4-0.7-0.6-1.1-0.7c-0.9-0.2-1.8,0.4-1.9,1.3c-0.1,0.8,0.3,1.7,1.1,2
						c0.1,0,0.2,0,0.2,0c0.3,0.1,0.8,0,1-0.2c0.4-0.3,0.7-0.6,0.8-1.1C426.3,20.6,426.2,20.1,425.9,19.8z"/>
				</g>
			</g>
		</g>
		<g>
			<g>
				<g>
					<path class="st27" d="M420.9,26.5c-0.5-0.8-1.5-1-2.3-0.5s-1,1.4-0.6,2.2c0.2,0.4,0.6,0.7,1,0.9c0.1,0,0.2,0,0.2,0
						c0.4,0.1,0.9,0,1.2-0.2c0.4-0.3,0.7-0.6,0.8-1.1S421.2,26.8,420.9,26.5z"/>
				</g>
			</g>
		</g>
		<g>
			<g>
				<g>
					<path class="st27" d="M411.6,27c-0.8-0.1-1.7,0.3-2,1.1c-0.2,0.4-0.1,0.9,0.1,1.3c0.3,0.4,0.6,0.7,1.1,0.8h0.1
						c0.4,0.1,0.9,0,1.2-0.3c0.4-0.3,0.6-0.7,0.7-1.1C413.1,28,412.6,27.1,411.6,27z"/>
				</g>
			</g>
		</g>
		<g>
			<g>
				<g>
					<path class="st27" d="M406,22.6c-0.5-0.8-1.4-1-2.2-0.6c-0.4,0.2-0.7,0.6-0.9,1c-0.2,0.5-0.1,0.9,0.2,1.4
						c0.3,0.4,0.6,0.7,1.1,0.8l0,0c0.4,0.1,0.9,0,1.2-0.3C406.3,24.4,406.5,23.4,406,22.6z"/>
				</g>
			</g>
		</g>
		<g>
			<g>
				<g>
					<path class="st27" d="M403.9,13.7c-0.4-0.2-0.9-0.1-1.3,0.1c-0.4,0.3-0.7,0.6-0.8,1.1s0,1,0.3,1.4c0.3,0.4,0.6,0.6,1.1,0.7l0,0
						c0.9,0.2,1.8-0.4,1.9-1.3C405.3,14.8,404.8,14,403.9,13.7z"/>
				</g>
			</g>
		</g>
		<g>
			<g>
				<g>
					<path class="st27" d="M410,7.9c-0.2-0.4-0.6-0.7-1-0.9s-0.9-0.1-1.4,0.2c-0.4,0.3-0.7,0.6-0.8,1.1c-0.1,0.4,0,0.9,0.3,1.2
						s0.7,0.6,1.2,0.7c0.4,0.1,0.8,0,1.1-0.2C410.1,9.6,410.4,8.7,410,7.9z"/>
				</g>
			</g>
		</g>
		<g>
			<g>
				<g>
					<path class="st27" d="M418.2,6.7c-0.3-0.4-0.6-0.7-1.1-0.8c-0.5-0.1-1,0-1.4,0.3c-0.3,0.2-0.5,0.6-0.6,1
						c-0.2,0.9,0.4,1.8,1.3,1.9h0.1c0.8,0.1,1.7-0.3,1.9-1.1C418.5,7.6,418.5,7.1,418.2,6.7z"/>
				</g>
			</g>
		</g>
		<g>
			<g>
				<g>
					<path class="st27" d="M424.8,11.6c-0.3-0.4-0.6-0.7-1.1-0.8c-0.4-0.1-0.9,0-1.2,0.3c-0.8,0.5-1,1.5-0.5,2.3
						c0.3,0.5,0.7,0.7,1.1,0.8c0.3,0.1,0.7,0,1-0.2c0.4-0.2,0.7-0.6,0.9-1C425.2,12.6,425.1,12.1,424.8,11.6z"/>
				</g>
			</g>
		</g>
	</g>
</g>
<g>
	<rect x="468" class="st0" width="36" height="36"/>
	<path class="st1" d="M488.4,13.1c-0.9,0-1.6,0.3-2.2,0.9l-0.2,0.2l-0.2-0.2c-0.6-0.6-1.3-0.9-2.2-0.9s-1.6,0.3-2.2,0.9
		s-0.9,1.3-0.9,2.2c0,0.9,0.3,1.6,0.9,2.2l4.1,4.2c0.1,0.1,0.3,0.2,0.5,0.2s0.4-0.1,0.5-0.2l4.1-4.2c0.6-0.6,0.9-1.3,0.9-2.2
		c0-0.9-0.3-1.6-0.9-2.2C490.1,13.5,489.3,13.1,488.4,13.1z"/>
	<g class="st28">
		<g>
			<g>
				<g>
					<path class="st29" d="M500.7,20.7c-0.3-0.5-0.8-0.8-1.3-0.9c-1.1-0.2-2.2,0.4-2.4,1.5c-0.2,1,0.3,2.1,1.3,2.5
						c0.1,0,0.2,0,0.3,0.1c0.4,0.1,1,0,1.3-0.1c0.5-0.3,0.9-0.8,1-1.4C501.1,21.8,501,21.2,500.7,20.7z"/>
				</g>
			</g>
		</g>
		<g>
			<g>
				<g>
					<path class="st29" d="M494.2,28.8c-0.6-1-1.9-1.2-2.8-0.7c-1,0.5-1.3,1.7-0.9,2.7c0.2,0.5,0.7,0.9,1.3,1.1c0.1,0,0.2,0,0.2,0
						c0.5,0.1,1.1,0,1.5-0.2c0.5-0.3,0.9-0.8,1-1.4C494.7,29.7,494.6,29.2,494.2,28.8z"/>
				</g>
			</g>
		</g>
		<g>
			<g>
				<g>
					<path class="st29" d="M482.7,29c-1-0.2-2.1,0.3-2.5,1.3c-0.2,0.5-0.1,1.1,0.1,1.6c0.3,0.5,0.8,0.9,1.4,1h0.1
						c0.5,0.1,1.2,0,1.6-0.3c0.5-0.3,0.8-0.8,0.9-1.3C484.4,30.3,483.8,29.2,482.7,29z"/>
				</g>
			</g>
		</g>
		<g>
			<g>
				<g>
					<path class="st29" d="M475.9,23.4c-0.5-1-1.7-1.3-2.7-0.9c-0.5,0.2-0.9,0.7-1.1,1.3c-0.2,0.6-0.1,1.1,0.2,1.7
						c0.3,0.5,0.8,0.9,1.4,1l0,0c0.5,0.1,1.1,0,1.6-0.3C476.2,25.6,476.5,24.4,475.9,23.4z"/>
				</g>
			</g>
		</g>
		<g>
			<g>
				<g>
					<path class="st29" d="M473.7,12.2c-0.5-0.2-1.1-0.1-1.6,0.1c-0.5,0.3-0.9,0.8-1,1.4s-0.1,1.3,0.3,1.8c0.4,0.5,0.7,0.8,1.3,0.9
						l0,0c1.1,0.2,2.2-0.4,2.4-1.5C475.3,13.6,474.8,12.6,473.7,12.2z"/>
				</g>
			</g>
		</g>
		<g>
			<g>
				<g>
					<path class="st29" d="M481.5,5.2c-0.2-0.5-0.7-0.9-1.3-1.1c-0.6-0.2-1.1-0.1-1.7,0.2c-0.5,0.3-0.9,0.8-1,1.4
						c-0.1,0.5,0,1.1,0.3,1.6s0.8,0.8,1.4,0.9c0.5,0.1,1,0,1.4-0.2C481.5,7.4,481.9,6.3,481.5,5.2z"/>
				</g>
			</g>
		</g>
		<g>
			<g>
				<g>
					<path class="st29" d="M491.7,4.1c-0.3-0.5-0.8-0.9-1.4-1C489.7,3,489,3,488.5,3.4c-0.4,0.2-0.7,0.7-0.8,1.2
						c-0.2,1.1,0.4,2.2,1.5,2.4h0.1c1,0.2,2.1-0.3,2.4-1.3C492,5.2,492,4.6,491.7,4.1z"/>
				</g>
			</g>
		</g>
		<g>
			<g>
				<g>
					<path class="st29" d="M499.7,10.5c-0.3-0.5-0.8-0.9-1.4-1c-0.5-0.1-1.1,0-1.6,0.3c-1,0.6-1.2,1.9-0.7,2.8
						c0.3,0.6,0.9,0.9,1.4,1c0.4,0.1,0.8,0.1,1.3-0.1c0.5-0.2,0.9-0.7,1.1-1.3C500.1,11.7,500,11.1,499.7,10.5z"/>
				</g>
			</g>
		</g>
	</g>
</g>
<g>
	<rect x="504" class="st0" width="36" height="36"/>
	<path class="st1" d="M524.9,12.3c-1,0-1.9,0.4-2.6,1.1l-0.2,0.3l-0.3-0.3c-0.7-0.7-1.6-1.1-2.6-1.1s-1.9,0.4-2.6,1.1
		c-0.7,0.7-1.1,1.6-1.1,2.6s0.4,1.9,1.1,2.6l4.8,4.9c0.1,0.1,0.4,0.2,0.6,0.2c0.2,0,0.4-0.1,0.6-0.2l4.8-4.9
		c0.7-0.7,1.1-1.6,1.1-2.6s-0.4-1.9-1.1-2.6C526.8,12.7,525.9,12.3,524.9,12.3z"/>
	<g class="st30">
		<g>
			<g>
				<g>
					<path class="st31" d="M537.6,21.2c-0.3-0.5-0.8-0.9-1.4-1c-1.2-0.3-2.4,0.4-2.6,1.6c-0.2,1.1,0.3,2.2,1.3,2.7
						c0.1,0,0.2,0,0.3,0.1c0.4,0.1,1,0,1.4-0.1c0.5-0.3,1-0.8,1.1-1.4C538,22.5,537.9,21.8,537.6,21.2z"/>
				</g>
			</g>
		</g>
		<g>
			<g>
				<g>
					<path class="st31" d="M530.5,29.7c-0.7-1.1-2-1.4-3-0.8s-1.4,1.8-1,2.8c0.2,0.5,0.7,1,1.3,1.2c0.1,0,0.2,0,0.2,0
						c0.5,0.1,1.1,0,1.6-0.2c0.5-0.3,1-0.8,1.1-1.4C531,30.7,530.9,30.1,530.5,29.7z"/>
				</g>
			</g>
		</g>
		<g>
			<g>
				<g>
					<path class="st31" d="M518.3,29.7c-1.1-0.2-2.2,0.3-2.7,1.3c-0.2,0.5-0.2,1.2,0.1,1.7s0.8,1,1.4,1.1h0.1
						c0.5,0.1,1.2,0.1,1.7-0.3c0.5-0.3,0.9-0.8,1-1.4C520.1,31.2,519.5,30,518.3,29.7z"/>
				</g>
			</g>
		</g>
		<g>
			<g>
				<g>
					<path class="st31" d="M511.2,23.7c-0.6-1-1.8-1.4-2.8-1c-0.5,0.2-1,0.7-1.2,1.3c-0.3,0.6-0.2,1.2,0.1,1.8
						c0.3,0.5,0.8,1,1.4,1.1l0,0c0.5,0.1,1.1,0,1.7-0.3C511.4,26,511.7,24.7,511.2,23.7z"/>
				</g>
			</g>
		</g>
		<g>
			<g>
				<g>
					<path class="st31" d="M509,11.7c-0.5-0.2-1.2-0.2-1.7,0.1s-1,0.8-1.1,1.4c-0.1,0.6-0.1,1.3,0.2,1.9s0.7,0.8,1.4,1l0,0
						c1.2,0.3,2.4-0.4,2.6-1.6C510.7,13.2,510.2,12.2,509,11.7z"/>
				</g>
			</g>
		</g>
		<g>
			<g>
				<g>
					<path class="st31" d="M517.4,4.4c-0.2-0.5-0.7-1-1.3-1.2c-0.6-0.3-1.2-0.2-1.8,0.1c-0.5,0.3-1,0.8-1.1,1.4
						c-0.1,0.5,0,1.1,0.3,1.7s0.8,0.9,1.5,1c0.5,0.1,1,0,1.5-0.2C517.5,6.7,517.8,5.6,517.4,4.4z"/>
				</g>
			</g>
		</g>
		<g>
			<g>
				<g>
					<path class="st31" d="M528.3,3.4c-0.3-0.5-0.8-1-1.4-1.1c-0.6-0.1-1.3-0.1-1.9,0.2c-0.4,0.2-0.7,0.7-0.9,1.3
						c-0.3,1.2,0.4,2.4,1.6,2.6h0.1c1.1,0.2,2.2-0.3,2.6-1.3C528.6,4.6,528.7,4,528.3,3.4z"/>
				</g>
			</g>
		</g>
		<g>
			<g>
				<g>
					<path class="st31" d="M536.7,10.4c-0.3-0.5-0.8-1-1.4-1.1c-0.5-0.1-1.1,0-1.7,0.3c-1.1,0.7-1.4,2-0.8,3c0.3,0.6,0.9,1,1.4,1.1
						c0.4,0.1,0.9,0.1,1.4-0.1c0.5-0.2,1-0.7,1.2-1.3C537.1,11.7,537,11,536.7,10.4z"/>
				</g>
			</g>
		</g>
	</g>
</g>
<g>
	<rect x="540" class="st0" width="36" height="36"/>
	<path class="st1" d="M561.2,11.4c-1.2,0-2.2,0.4-3,1.2l-0.2,0.3l-0.3-0.3c-0.8-0.8-1.8-1.2-3-1.2s-2.2,0.4-3,1.2s-1.2,1.8-1.2,3
		s0.4,2.2,1.2,3l5.6,5.7c0.2,0.2,0.4,0.2,0.7,0.2s0.5-0.1,0.7-0.2l5.6-5.7c0.8-0.8,1.2-1.8,1.2-3s-0.4-2.2-1.2-3
		C563.5,11.9,562.4,11.4,561.2,11.4z"/>
	<g class="st32">
		<g>
			<g>
				<g>
					<path class="st33" d="M574.4,21.6c-0.3-0.6-0.9-0.9-1.4-1.1c-1.3-0.3-2.5,0.3-2.8,1.6c-0.3,1.1,0.3,2.4,1.3,2.9
						c0.1,0,0.2,0.1,0.3,0.1c0.5,0.1,1.1,0,1.5-0.1c0.6-0.3,1.1-0.8,1.2-1.5C574.8,23,574.7,22.2,574.4,21.6z"/>
				</g>
			</g>
		</g>
		<g>
			<g>
				<g>
					<path class="st33" d="M566.7,30.5c-0.7-1.1-2.1-1.5-3.2-0.9c-1.1,0.6-1.6,1.9-1.1,3c0.2,0.5,0.7,1,1.4,1.3
						c0.1,0,0.2,0.1,0.2,0.1c0.6,0.1,1.2,0.1,1.7-0.2c0.6-0.3,1.1-0.8,1.2-1.5C567.2,31.6,567.1,31,566.7,30.5z"/>
				</g>
			</g>
		</g>
		<g>
			<g>
				<g>
					<path class="st33" d="M553.7,30.3c-1.1-0.3-2.4,0.3-2.9,1.3c-0.3,0.5-0.2,1.3,0,1.8c0.3,0.6,0.8,1.1,1.5,1.2h0.1
						c0.6,0.1,1.3,0.1,1.8-0.3c0.6-0.3,0.9-0.9,1.1-1.4C555.6,31.8,555,30.6,553.7,30.3z"/>
				</g>
			</g>
		</g>
		<g>
			<g>
				<g>
					<path class="st33" d="M546.3,23.7c-0.6-1.1-1.9-1.6-3-1.1c-0.5,0.2-1,0.7-1.3,1.4c-0.3,0.7-0.2,1.3,0.1,2
						c0.3,0.6,0.8,1.1,1.5,1.2l0,0c0.6,0.1,1.2,0.1,1.8-0.3C546.5,26.2,546.9,24.8,546.3,23.7z"/>
				</g>
			</g>
		</g>
		<g>
			<g>
				<g>
					<path class="st33" d="M544.3,11c-0.5-0.3-1.3-0.2-1.8,0c-0.6,0.3-1.1,0.8-1.2,1.5s-0.1,1.4,0.2,2s0.7,0.9,1.4,1.1l0,0
						c1.3,0.3,2.5-0.3,2.8-1.6C546,12.6,545.5,11.5,544.3,11z"/>
				</g>
			</g>
		</g>
		<g>
			<g>
				<g>
					<path class="st33" d="M553.3,3.4c-0.2-0.5-0.7-1-1.4-1.3s-1.3-0.2-2,0.1c-0.6,0.3-1.1,0.8-1.2,1.5c-0.1,0.6-0.1,1.2,0.3,1.8
						c0.3,0.6,0.9,0.9,1.5,1.1c0.6,0.1,1.1,0,1.6-0.2C553.3,5.9,553.7,4.6,553.3,3.4z"/>
				</g>
			</g>
		</g>
		<g>
			<g>
				<g>
					<path class="st33" d="M564.9,2.6c-0.3-0.6-0.8-1.1-1.5-1.2s-1.4-0.1-2,0.2c-0.4,0.3-0.8,0.8-0.9,1.3c-0.3,1.3,0.3,2.5,1.6,2.8
						h0.1c1.1,0.3,2.4-0.3,2.8-1.4C565.2,3.9,565.2,3.1,564.9,2.6z"/>
				</g>
			</g>
		</g>
		<g>
			<g>
				<g>
					<path class="st33" d="M573.6,10.1c-0.3-0.6-0.8-1.1-1.5-1.2c-0.6-0.1-1.2-0.1-1.8,0.3c-1.1,0.7-1.5,2.1-0.9,3.2
						c0.3,0.7,0.9,1.1,1.5,1.2c0.5,0.1,0.9,0.1,1.5-0.1c0.5-0.2,1-0.7,1.3-1.4C574,11.5,574,10.8,573.6,10.1z"/>
				</g>
			</g>
		</g>
	</g>
</g>
<g>
	<rect x="36" class="st0" width="36" height="36"/>
	<g>
		<g>
			<g>
				<g>
					<path class="st34" d="M57.3,17.8c-0.1-0.1-0.2-0.1-0.3-0.1c-0.3,0-0.5,0.2-0.5,0.4c0,0.2,0.2,0.4,0.4,0.5c0,0,0,0,0.1,0
						s0.2,0,0.3-0.1c0.1-0.1,0.2-0.2,0.2-0.4C57.6,18,57.4,18,57.3,17.8z"/>
				</g>
			</g>
		</g>
		<g>
			<g>
				<g>
					<path class="st34" d="M56.3,20c-0.2-0.2-0.5-0.2-0.7,0c-0.2,0.2-0.2,0.4-0.1,0.6c0.1,0.1,0.2,0.2,0.3,0.2l0,0
						c0.1,0,0.2,0,0.3-0.1c0.1-0.1,0.2-0.2,0.2-0.4C56.4,20.2,56.4,20,56.3,20z"/>
				</g>
			</g>
		</g>
		<g>
			<g>
				<g>
					<path class="st34" d="M53.8,20.5c-0.2,0-0.4,0.2-0.5,0.4c0,0.1,0,0.3,0.1,0.4c0.1,0.1,0.2,0.2,0.4,0.2l0,0c0.1,0,0.3,0,0.3-0.1
						c0.1-0.1,0.1-0.2,0.1-0.3C54.2,20.8,54.1,20.5,53.8,20.5z"/>
				</g>
			</g>
		</g>
		<g>
			<g>
				<g>
					<path class="st34" d="M52.1,19.7c-0.2-0.2-0.4-0.2-0.6-0.1c-0.1,0.1-0.2,0.2-0.2,0.3c0,0.1,0,0.3,0.1,0.4
						c0.1,0.1,0.2,0.2,0.4,0.2l0,0c0.1,0,0.2,0,0.3-0.1C52.2,20,52.2,19.8,52.1,19.7z"/>
				</g>
			</g>
		</g>
		<g>
			<g>
				<g>
					<path class="st34" d="M51.1,17.2c-0.1,0-0.3,0-0.4,0.1c-0.1,0.1-0.2,0.2-0.2,0.4c0,0.2,0,0.3,0.1,0.4c0.1,0.1,0.2,0.1,0.3,0.1
						l0,0c0.3,0,0.5-0.2,0.5-0.4C51.4,17.5,51.2,17.2,51.1,17.2z"/>
				</g>
			</g>
		</g>
		<g>
			<g>
				<g>
					<path class="st34" d="M52.4,15.3c-0.1-0.1-0.2-0.2-0.3-0.2s-0.3,0-0.4,0.1s-0.2,0.2-0.2,0.4c0,0.1,0,0.2,0.1,0.3
						C51.7,16,51.8,16,52,16c0.1,0,0.2,0,0.3-0.1C52.6,15.8,52.6,15.6,52.4,15.3z"/>
				</g>
			</g>
		</g>
		<g>
			<g>
				<g>
					<path class="st34" d="M54.7,14.6c-0.1-0.1-0.2-0.2-0.4-0.2c-0.2,0-0.3,0-0.4,0.1s-0.1,0.2-0.1,0.3c0,0.3,0.2,0.5,0.4,0.5l0,0
						c0.2,0,0.4-0.2,0.5-0.4C54.8,14.8,54.8,14.8,54.7,14.6z"/>
				</g>
			</g>
		</g>
		<g>
			<g>
				<g>
					<path class="st34" d="M56.7,15.6c-0.1-0.1-0.2-0.2-0.4-0.2c-0.1,0-0.2,0-0.3,0.1c-0.2,0.2-0.2,0.5,0,0.7
						c0.1,0.1,0.2,0.2,0.4,0.2c0.1,0,0.2,0,0.3-0.1c0.1-0.1,0.2-0.2,0.2-0.3C56.8,15.9,56.8,15.8,56.7,15.6z"/>
				</g>
			</g>
		</g>
	</g>
	<path class="st6" d="M54,17.5c-0.3,0-0.5,0.2-0.5,0.5s0.2,0.5,0.5,0.5s0.5-0.2,0.5-0.5S54.3,17.5,54,17.5z"/>
</g>
</svg>
